<svg width="720" height="1056" viewBox="0 0 720 1056" fill="none" xmlns="http://www.w3.org/2000/svg">
<g clip-path="url(#clip0_1_816)">
<path d="M534.403 786.186C520.851 801.506 495.908 830.18 515.941 870.049C541.08 920.327 545.99 942.128 524.779 970.998C523.797 971.98 522.226 974.141 522.226 974.141L522.815 1017.94C522.815 1028.74 513.977 1037.38 503.372 1037.38H398.691C387.889 1037.38 379.247 1028.54 379.247 1017.94V1000.07C384.55 1001.05 390.835 1001.44 398.887 1001.44H414.403C419.116 1001.44 422.848 997.512 422.848 992.799C422.848 988.085 418.92 984.157 414.206 984.157H398.691C377.872 984.157 372.962 980.818 363.928 974.73C362.16 973.551 360.196 972.373 358.036 970.802L296.563 924.844C280.655 912.864 267.3 898.134 256.89 881.244L192.275 772.438C195.81 770.671 199.542 769.689 203.47 769.493C213.093 769.1 233.912 771.653 252.766 805.63C259.444 817.61 303.633 897.152 303.633 897.152C305.205 899.902 308.151 901.669 311.293 901.669C312.668 901.669 314.043 901.473 315.221 900.687C319.345 898.33 320.917 893.028 318.56 888.903L267.889 796.988L254.141 772.242C256.89 770.671 260.033 769.885 263.175 769.689C276.923 769.1 290.867 775.974 307.365 804.648C319.935 826.252 355.876 892.242 355.876 892.242C358.232 896.366 363.535 897.938 367.66 895.581C371.784 893.224 373.355 887.921 370.998 883.797L309.133 772.242C311.489 770.867 314.239 770.278 316.989 770.082C329.754 769.493 343.699 778.723 358.232 802.684C376.498 832.733 390.246 856.89 400.065 874.37C404.583 882.619 412.046 888.707 421.08 891.26C448.969 899.509 471.162 920.72 480.589 948.216C481.768 951.555 484.714 955.679 491.391 953.715C496.105 952.34 498.069 947.038 496.498 942.52C484.321 909.329 462.324 891.653 443.863 882.226C462.128 869.263 476.268 839.607 483.732 815.057C489.231 796.596 497.283 777.152 514.959 770.867C521.637 768.314 528.903 768.903 534.992 772.438C537.545 773.813 539.705 775.777 541.08 778.33C538.92 780.884 536.759 783.633 534.403 786.186Z" fill="white"/>
<path d="M613.355 697.021H106.645V183.83C106.645 175.777 113.126 169.296 121.178 169.296H598.822C606.874 169.296 613.355 175.777 613.355 183.83V697.021V697.021Z" fill="white"/>
<g clip-path="url(#clip1_1_816)">
<path d="M619 177H107V689H619V177Z" fill="white" fill-opacity="0.992126"/>
<path d="M139.933 197.199H127.199V209.933H139.933V197.199Z" fill="black" fill-opacity="0.992126"/>
<path d="M152.667 197.199H139.933V209.933H152.667V197.199Z" fill="black" fill-opacity="0.992126"/>
<path d="M165.401 197.199H152.667V209.933H165.401V197.199Z" fill="black" fill-opacity="0.992126"/>
<path d="M178.136 197.199H165.401V209.933H178.136V197.199Z" fill="black" fill-opacity="0.992126"/>
<path d="M190.87 197.199H178.136V209.933H190.87V197.199Z" fill="black" fill-opacity="0.992126"/>
<path d="M203.604 197.199H190.87V209.933H203.604V197.199Z" fill="black" fill-opacity="0.992126"/>
<path d="M216.338 197.199H203.604V209.933H216.338V197.199Z" fill="black" fill-opacity="0.992126"/>
<path d="M305.477 197.199H292.743V209.933H305.477V197.199Z" fill="black" fill-opacity="0.992126"/>
<path d="M343.679 197.199H330.945V209.933H343.679V197.199Z" fill="black" fill-opacity="0.992126"/>
<path d="M407.35 197.199H394.616V209.933H407.35V197.199Z" fill="black" fill-opacity="0.992126"/>
<path d="M432.818 197.199H420.084V209.933H432.818V197.199Z" fill="black" fill-opacity="0.992126"/>
<path d="M445.552 197.199H432.818V209.933H445.552V197.199Z" fill="black" fill-opacity="0.992126"/>
<path d="M458.286 197.199H445.552V209.933H458.286V197.199Z" fill="black" fill-opacity="0.992126"/>
<path d="M483.755 197.199H471.021V209.933H483.755V197.199Z" fill="black" fill-opacity="0.992126"/>
<path d="M521.957 197.199H509.223V209.933H521.957V197.199Z" fill="black" fill-opacity="0.992126"/>
<path d="M534.691 197.199H521.957V209.933H534.691V197.199Z" fill="black" fill-opacity="0.992126"/>
<path d="M547.425 197.199H534.691V209.933H547.425V197.199Z" fill="black" fill-opacity="0.992126"/>
<path d="M560.159 197.199H547.425V209.933H560.159V197.199Z" fill="black" fill-opacity="0.992126"/>
<path d="M572.894 197.199H560.16V209.933H572.894V197.199Z" fill="black" fill-opacity="0.992126"/>
<path d="M585.628 197.199H572.894V209.933H585.628V197.199Z" fill="black" fill-opacity="0.992126"/>
<path d="M598.362 197.199H585.628V209.933H598.362V197.199Z" fill="black" fill-opacity="0.992126"/>
<path d="M139.933 209.933H127.199V222.667H139.933V209.933Z" fill="black" fill-opacity="0.992126"/>
<path d="M216.338 209.933H203.604V222.667H216.338V209.933Z" fill="black" fill-opacity="0.992126"/>
<path d="M241.806 209.933H229.072V222.667H241.806V209.933Z" fill="black" fill-opacity="0.992126"/>
<path d="M254.54 209.933H241.806V222.667H254.54V209.933Z" fill="black" fill-opacity="0.992126"/>
<path d="M267.274 209.933H254.54V222.667H267.274V209.933Z" fill="black" fill-opacity="0.992126"/>
<path d="M280.009 209.933H267.274V222.667H280.009V209.933Z" fill="black" fill-opacity="0.992126"/>
<path d="M292.743 209.933H280.009V222.667H292.743V209.933Z" fill="black" fill-opacity="0.992126"/>
<path d="M305.477 209.933H292.743V222.667H305.477V209.933Z" fill="black" fill-opacity="0.992126"/>
<path d="M318.211 209.933H305.477V222.667H318.211V209.933Z" fill="black" fill-opacity="0.992126"/>
<path d="M381.882 209.933H369.148V222.667H381.882V209.933Z" fill="black" fill-opacity="0.992126"/>
<path d="M394.616 209.933H381.882V222.667H394.616V209.933Z" fill="black" fill-opacity="0.992126"/>
<path d="M407.35 209.933H394.616V222.667H407.35V209.933Z" fill="black" fill-opacity="0.992126"/>
<path d="M420.084 209.933H407.35V222.667H420.084V209.933Z" fill="black" fill-opacity="0.992126"/>
<path d="M458.286 209.933H445.552V222.667H458.286V209.933Z" fill="black" fill-opacity="0.992126"/>
<path d="M471.021 209.933H458.286V222.667H471.021V209.933Z" fill="black" fill-opacity="0.992126"/>
<path d="M521.957 209.933H509.223V222.667H521.957V209.933Z" fill="black" fill-opacity="0.992126"/>
<path d="M598.362 209.933H585.628V222.667H598.362V209.933Z" fill="black" fill-opacity="0.992126"/>
<path d="M139.933 222.667H127.199V235.401H139.933V222.667Z" fill="black" fill-opacity="0.992126"/>
<path d="M165.401 222.667H152.667V235.401H165.401V222.667Z" fill="black" fill-opacity="0.992126"/>
<path d="M178.136 222.667H165.401V235.401H178.136V222.667Z" fill="black" fill-opacity="0.992126"/>
<path d="M190.87 222.667H178.136V235.401H190.87V222.667Z" fill="black" fill-opacity="0.992126"/>
<path d="M216.338 222.667H203.604V235.401H216.338V222.667Z" fill="black" fill-opacity="0.992126"/>
<path d="M241.806 222.667H229.072V235.401H241.806V222.667Z" fill="black" fill-opacity="0.992126"/>
<path d="M280.009 222.667H267.274V235.401H280.009V222.667Z" fill="black" fill-opacity="0.992126"/>
<path d="M292.743 222.667H280.009V235.401H292.743V222.667Z" fill="black" fill-opacity="0.992126"/>
<path d="M305.477 222.667H292.743V235.401H305.477V222.667Z" fill="black" fill-opacity="0.992126"/>
<path d="M343.679 222.667H330.945V235.401H343.679V222.667Z" fill="black" fill-opacity="0.992126"/>
<path d="M356.413 222.667H343.679V235.401H356.413V222.667Z" fill="black" fill-opacity="0.992126"/>
<path d="M381.882 222.667H369.148V235.401H381.882V222.667Z" fill="black" fill-opacity="0.992126"/>
<path d="M420.084 222.667H407.35V235.401H420.084V222.667Z" fill="black" fill-opacity="0.992126"/>
<path d="M432.818 222.667H420.084V235.401H432.818V222.667Z" fill="black" fill-opacity="0.992126"/>
<path d="M445.552 222.667H432.818V235.401H445.552V222.667Z" fill="black" fill-opacity="0.992126"/>
<path d="M458.286 222.667H445.552V235.401H458.286V222.667Z" fill="black" fill-opacity="0.992126"/>
<path d="M471.021 222.667H458.286V235.401H471.021V222.667Z" fill="black" fill-opacity="0.992126"/>
<path d="M521.957 222.667H509.223V235.401H521.957V222.667Z" fill="black" fill-opacity="0.992126"/>
<path d="M547.425 222.667H534.691V235.401H547.425V222.667Z" fill="black" fill-opacity="0.992126"/>
<path d="M560.159 222.667H547.425V235.401H560.159V222.667Z" fill="black" fill-opacity="0.992126"/>
<path d="M572.894 222.667H560.16V235.401H572.894V222.667Z" fill="black" fill-opacity="0.992126"/>
<path d="M598.362 222.667H585.628V235.401H598.362V222.667Z" fill="black" fill-opacity="0.992126"/>
<path d="M139.933 235.401H127.199V248.136H139.933V235.401Z" fill="black" fill-opacity="0.992126"/>
<path d="M165.401 235.401H152.667V248.136H165.401V235.401Z" fill="black" fill-opacity="0.992126"/>
<path d="M178.136 235.401H165.401V248.136H178.136V235.401Z" fill="black" fill-opacity="0.992126"/>
<path d="M190.87 235.401H178.136V248.136H190.87V235.401Z" fill="black" fill-opacity="0.992126"/>
<path d="M216.338 235.401H203.604V248.136H216.338V235.401Z" fill="black" fill-opacity="0.992126"/>
<path d="M241.806 235.401H229.072V248.136H241.806V235.401Z" fill="black" fill-opacity="0.992126"/>
<path d="M254.54 235.401H241.806V248.136H254.54V235.401Z" fill="black" fill-opacity="0.992126"/>
<path d="M280.009 235.401H267.274V248.136H280.009V235.401Z" fill="black" fill-opacity="0.992126"/>
<path d="M305.477 235.401H292.743V248.136H305.477V235.401Z" fill="black" fill-opacity="0.992126"/>
<path d="M330.945 235.401H318.211V248.136H330.945V235.401Z" fill="black" fill-opacity="0.992126"/>
<path d="M369.148 235.401H356.413V248.136H369.148V235.401Z" fill="black" fill-opacity="0.992126"/>
<path d="M394.616 235.401H381.882V248.136H394.616V235.401Z" fill="black" fill-opacity="0.992126"/>
<path d="M407.35 235.401H394.616V248.136H407.35V235.401Z" fill="black" fill-opacity="0.992126"/>
<path d="M420.084 235.401H407.35V248.136H420.084V235.401Z" fill="black" fill-opacity="0.992126"/>
<path d="M445.552 235.401H432.818V248.136H445.552V235.401Z" fill="black" fill-opacity="0.992126"/>
<path d="M458.286 235.401H445.552V248.136H458.286V235.401Z" fill="black" fill-opacity="0.992126"/>
<path d="M521.957 235.401H509.223V248.136H521.957V235.401Z" fill="black" fill-opacity="0.992126"/>
<path d="M547.425 235.401H534.691V248.136H547.425V235.401Z" fill="black" fill-opacity="0.992126"/>
<path d="M560.159 235.401H547.425V248.136H560.159V235.401Z" fill="black" fill-opacity="0.992126"/>
<path d="M572.894 235.401H560.16V248.136H572.894V235.401Z" fill="black" fill-opacity="0.992126"/>
<path d="M598.362 235.401H585.628V248.136H598.362V235.401Z" fill="black" fill-opacity="0.992126"/>
<path d="M139.933 248.136H127.199V260.87H139.933V248.136Z" fill="black" fill-opacity="0.992126"/>
<path d="M165.401 248.136H152.667V260.87H165.401V248.136Z" fill="black" fill-opacity="0.992126"/>
<path d="M178.136 248.136H165.401V260.87H178.136V248.136Z" fill="black" fill-opacity="0.992126"/>
<path d="M190.87 248.136H178.136V260.87H190.87V248.136Z" fill="black" fill-opacity="0.992126"/>
<path d="M216.338 248.136H203.604V260.87H216.338V248.136Z" fill="black" fill-opacity="0.992126"/>
<path d="M241.806 248.136H229.072V260.87H241.806V248.136Z" fill="black" fill-opacity="0.992126"/>
<path d="M292.743 248.136H280.009V260.87H292.743V248.136Z" fill="black" fill-opacity="0.992126"/>
<path d="M305.477 248.136H292.743V260.87H305.477V248.136Z" fill="black" fill-opacity="0.992126"/>
<path d="M318.211 248.136H305.477V260.87H318.211V248.136Z" fill="black" fill-opacity="0.992126"/>
<path d="M330.945 248.136H318.211V260.87H330.945V248.136Z" fill="black" fill-opacity="0.992126"/>
<path d="M343.679 248.136H330.945V260.87H343.679V248.136Z" fill="black" fill-opacity="0.992126"/>
<path d="M369.148 248.136H356.413V260.87H369.148V248.136Z" fill="black" fill-opacity="0.992126"/>
<path d="M394.616 248.136H381.882V260.87H394.616V248.136Z" fill="black" fill-opacity="0.992126"/>
<path d="M432.818 248.136H420.084V260.87H432.818V248.136Z" fill="black" fill-opacity="0.992126"/>
<path d="M458.286 248.136H445.552V260.87H458.286V248.136Z" fill="black" fill-opacity="0.992126"/>
<path d="M471.021 248.136H458.286V260.87H471.021V248.136Z" fill="black" fill-opacity="0.992126"/>
<path d="M496.489 248.136H483.755V260.87H496.489V248.136Z" fill="black" fill-opacity="0.992126"/>
<path d="M521.957 248.136H509.223V260.87H521.957V248.136Z" fill="black" fill-opacity="0.992126"/>
<path d="M547.425 248.136H534.691V260.87H547.425V248.136Z" fill="black" fill-opacity="0.992126"/>
<path d="M560.159 248.136H547.425V260.87H560.159V248.136Z" fill="black" fill-opacity="0.992126"/>
<path d="M572.894 248.136H560.16V260.87H572.894V248.136Z" fill="black" fill-opacity="0.992126"/>
<path d="M598.362 248.136H585.628V260.87H598.362V248.136Z" fill="black" fill-opacity="0.992126"/>
<path d="M139.933 260.87H127.199V273.604H139.933V260.87Z" fill="black" fill-opacity="0.992126"/>
<path d="M216.338 260.87H203.604V273.604H216.338V260.87Z" fill="black" fill-opacity="0.992126"/>
<path d="M241.806 260.87H229.072V273.604H241.806V260.87Z" fill="black" fill-opacity="0.992126"/>
<path d="M254.54 260.87H241.806V273.604H254.54V260.87Z" fill="black" fill-opacity="0.992126"/>
<path d="M267.274 260.87H254.54V273.604H267.274V260.87Z" fill="black" fill-opacity="0.992126"/>
<path d="M305.477 260.87H292.743V273.604H305.477V260.87Z" fill="black" fill-opacity="0.992126"/>
<path d="M318.211 260.87H305.477V273.604H318.211V260.87Z" fill="black" fill-opacity="0.992126"/>
<path d="M356.413 260.87H343.679V273.604H356.413V260.87Z" fill="black" fill-opacity="0.992126"/>
<path d="M369.148 260.87H356.413V273.604H369.148V260.87Z" fill="black" fill-opacity="0.992126"/>
<path d="M381.882 260.87H369.148V273.604H381.882V260.87Z" fill="black" fill-opacity="0.992126"/>
<path d="M394.616 260.87H381.882V273.604H394.616V260.87Z" fill="black" fill-opacity="0.992126"/>
<path d="M445.552 260.87H432.818V273.604H445.552V260.87Z" fill="black" fill-opacity="0.992126"/>
<path d="M458.286 260.87H445.552V273.604H458.286V260.87Z" fill="black" fill-opacity="0.992126"/>
<path d="M471.021 260.87H458.286V273.604H471.021V260.87Z" fill="black" fill-opacity="0.992126"/>
<path d="M483.755 260.87H471.021V273.604H483.755V260.87Z" fill="black" fill-opacity="0.992126"/>
<path d="M496.489 260.87H483.755V273.604H496.489V260.87Z" fill="black" fill-opacity="0.992126"/>
<path d="M521.957 260.87H509.223V273.604H521.957V260.87Z" fill="black" fill-opacity="0.992126"/>
<path d="M598.362 260.87H585.628V273.604H598.362V260.87Z" fill="black" fill-opacity="0.992126"/>
<path d="M139.933 273.604H127.199V286.338H139.933V273.604Z" fill="black" fill-opacity="0.992126"/>
<path d="M152.667 273.604H139.933V286.338H152.667V273.604Z" fill="black" fill-opacity="0.992126"/>
<path d="M165.401 273.604H152.667V286.338H165.401V273.604Z" fill="black" fill-opacity="0.992126"/>
<path d="M178.136 273.604H165.401V286.338H178.136V273.604Z" fill="black" fill-opacity="0.992126"/>
<path d="M190.87 273.604H178.136V286.338H190.87V273.604Z" fill="black" fill-opacity="0.992126"/>
<path d="M203.604 273.604H190.87V286.338H203.604V273.604Z" fill="black" fill-opacity="0.992126"/>
<path d="M216.338 273.604H203.604V286.338H216.338V273.604Z" fill="black" fill-opacity="0.992126"/>
<path d="M241.806 273.604H229.072V286.338H241.806V273.604Z" fill="black" fill-opacity="0.992126"/>
<path d="M267.274 273.604H254.54V286.338H267.274V273.604Z" fill="black" fill-opacity="0.992126"/>
<path d="M292.743 273.604H280.009V286.338H292.743V273.604Z" fill="black" fill-opacity="0.992126"/>
<path d="M318.211 273.604H305.477V286.338H318.211V273.604Z" fill="black" fill-opacity="0.992126"/>
<path d="M343.679 273.604H330.945V286.338H343.679V273.604Z" fill="black" fill-opacity="0.992126"/>
<path d="M369.148 273.604H356.413V286.338H369.148V273.604Z" fill="black" fill-opacity="0.992126"/>
<path d="M394.616 273.604H381.882V286.338H394.616V273.604Z" fill="black" fill-opacity="0.992126"/>
<path d="M420.084 273.604H407.35V286.338H420.084V273.604Z" fill="black" fill-opacity="0.992126"/>
<path d="M445.552 273.604H432.818V286.338H445.552V273.604Z" fill="black" fill-opacity="0.992126"/>
<path d="M471.021 273.604H458.286V286.338H471.021V273.604Z" fill="black" fill-opacity="0.992126"/>
<path d="M496.489 273.604H483.755V286.338H496.489V273.604Z" fill="black" fill-opacity="0.992126"/>
<path d="M521.957 273.604H509.223V286.338H521.957V273.604Z" fill="black" fill-opacity="0.992126"/>
<path d="M534.691 273.604H521.957V286.338H534.691V273.604Z" fill="black" fill-opacity="0.992126"/>
<path d="M547.425 273.604H534.691V286.338H547.425V273.604Z" fill="black" fill-opacity="0.992126"/>
<path d="M560.159 273.604H547.425V286.338H560.159V273.604Z" fill="black" fill-opacity="0.992126"/>
<path d="M572.894 273.604H560.16V286.338H572.894V273.604Z" fill="black" fill-opacity="0.992126"/>
<path d="M585.628 273.604H572.894V286.338H585.628V273.604Z" fill="black" fill-opacity="0.992126"/>
<path d="M598.362 273.604H585.628V286.338H598.362V273.604Z" fill="black" fill-opacity="0.992126"/>
<path d="M267.274 286.338H254.54V299.072H267.274V286.338Z" fill="black" fill-opacity="0.992126"/>
<path d="M280.009 286.338H267.274V299.072H280.009V286.338Z" fill="black" fill-opacity="0.992126"/>
<path d="M292.743 286.338H280.009V299.072H292.743V286.338Z" fill="black" fill-opacity="0.992126"/>
<path d="M318.211 286.338H305.477V299.072H318.211V286.338Z" fill="black" fill-opacity="0.992126"/>
<path d="M330.945 286.338H318.211V299.072H330.945V286.338Z" fill="black" fill-opacity="0.992126"/>
<path d="M343.679 286.338H330.945V299.072H343.679V286.338Z" fill="black" fill-opacity="0.992126"/>
<path d="M356.413 286.338H343.679V299.072H356.413V286.338Z" fill="black" fill-opacity="0.992126"/>
<path d="M369.148 286.338H356.413V299.072H369.148V286.338Z" fill="black" fill-opacity="0.992126"/>
<path d="M394.616 286.338H381.882V299.072H394.616V286.338Z" fill="black" fill-opacity="0.992126"/>
<path d="M407.35 286.338H394.616V299.072H407.35V286.338Z" fill="black" fill-opacity="0.992126"/>
<path d="M432.818 286.338H420.084V299.072H432.818V286.338Z" fill="black" fill-opacity="0.992126"/>
<path d="M471.021 286.338H458.286V299.072H471.021V286.338Z" fill="black" fill-opacity="0.992126"/>
<path d="M483.755 286.338H471.021V299.072H483.755V286.338Z" fill="black" fill-opacity="0.992126"/>
<path d="M165.401 299.072H152.667V311.806H165.401V299.072Z" fill="black" fill-opacity="0.992126"/>
<path d="M203.604 299.072H190.87V311.806H203.604V299.072Z" fill="black" fill-opacity="0.992126"/>
<path d="M216.338 299.072H203.604V311.806H216.338V299.072Z" fill="black" fill-opacity="0.992126"/>
<path d="M229.072 299.072H216.338V311.806H229.072V299.072Z" fill="black" fill-opacity="0.992126"/>
<path d="M241.806 299.072H229.072V311.806H241.806V299.072Z" fill="black" fill-opacity="0.992126"/>
<path d="M254.54 299.072H241.806V311.806H254.54V299.072Z" fill="black" fill-opacity="0.992126"/>
<path d="M318.211 299.072H305.477V311.806H318.211V299.072Z" fill="black" fill-opacity="0.992126"/>
<path d="M356.413 299.072H343.679V311.806H356.413V299.072Z" fill="black" fill-opacity="0.992126"/>
<path d="M381.882 299.072H369.148V311.806H381.882V299.072Z" fill="black" fill-opacity="0.992126"/>
<path d="M394.616 299.072H381.882V311.806H394.616V299.072Z" fill="black" fill-opacity="0.992126"/>
<path d="M420.084 299.072H407.35V311.806H420.084V299.072Z" fill="black" fill-opacity="0.992126"/>
<path d="M432.818 299.072H420.084V311.806H432.818V299.072Z" fill="black" fill-opacity="0.992126"/>
<path d="M445.552 299.072H432.818V311.806H445.552V299.072Z" fill="black" fill-opacity="0.992126"/>
<path d="M483.755 299.072H471.021V311.806H483.755V299.072Z" fill="black" fill-opacity="0.992126"/>
<path d="M509.223 299.072H496.489V311.806H509.223V299.072Z" fill="black" fill-opacity="0.992126"/>
<path d="M534.691 299.072H521.957V311.806H534.691V299.072Z" fill="black" fill-opacity="0.992126"/>
<path d="M547.425 299.072H534.691V311.806H547.425V299.072Z" fill="black" fill-opacity="0.992126"/>
<path d="M560.159 299.072H547.425V311.806H560.159V299.072Z" fill="black" fill-opacity="0.992126"/>
<path d="M572.894 299.072H560.16V311.806H572.894V299.072Z" fill="black" fill-opacity="0.992126"/>
<path d="M585.628 299.072H572.894V311.806H585.628V299.072Z" fill="black" fill-opacity="0.992126"/>
<path d="M152.667 311.806H139.933V324.54H152.667V311.806Z" fill="black" fill-opacity="0.992126"/>
<path d="M178.136 311.806H165.401V324.54H178.136V311.806Z" fill="black" fill-opacity="0.992126"/>
<path d="M203.604 311.806H190.87V324.54H203.604V311.806Z" fill="black" fill-opacity="0.992126"/>
<path d="M229.072 311.806H216.338V324.54H229.072V311.806Z" fill="black" fill-opacity="0.992126"/>
<path d="M241.806 311.806H229.072V324.54H241.806V311.806Z" fill="black" fill-opacity="0.992126"/>
<path d="M280.009 311.806H267.274V324.54H280.009V311.806Z" fill="black" fill-opacity="0.992126"/>
<path d="M292.743 311.806H280.009V324.54H292.743V311.806Z" fill="black" fill-opacity="0.992126"/>
<path d="M305.477 311.806H292.743V324.54H305.477V311.806Z" fill="black" fill-opacity="0.992126"/>
<path d="M318.211 311.806H305.477V324.54H318.211V311.806Z" fill="black" fill-opacity="0.992126"/>
<path d="M343.679 311.806H330.945V324.54H343.679V311.806Z" fill="black" fill-opacity="0.992126"/>
<path d="M394.616 311.806H381.882V324.54H394.616V311.806Z" fill="black" fill-opacity="0.992126"/>
<path d="M432.818 311.806H420.084V324.54H432.818V311.806Z" fill="black" fill-opacity="0.992126"/>
<path d="M445.552 311.806H432.818V324.54H445.552V311.806Z" fill="black" fill-opacity="0.992126"/>
<path d="M496.489 311.806H483.755V324.54H496.489V311.806Z" fill="black" fill-opacity="0.992126"/>
<path d="M509.223 311.806H496.489V324.54H509.223V311.806Z" fill="black" fill-opacity="0.992126"/>
<path d="M521.957 311.806H509.223V324.54H521.957V311.806Z" fill="black" fill-opacity="0.992126"/>
<path d="M560.159 311.806H547.425V324.54H560.159V311.806Z" fill="black" fill-opacity="0.992126"/>
<path d="M585.628 311.806H572.894V324.54H585.628V311.806Z" fill="black" fill-opacity="0.992126"/>
<path d="M190.87 324.54H178.136V337.274H190.87V324.54Z" fill="black" fill-opacity="0.992126"/>
<path d="M203.604 324.54H190.87V337.274H203.604V324.54Z" fill="black" fill-opacity="0.992126"/>
<path d="M216.338 324.54H203.604V337.274H216.338V324.54Z" fill="black" fill-opacity="0.992126"/>
<path d="M254.54 324.54H241.806V337.274H254.54V324.54Z" fill="black" fill-opacity="0.992126"/>
<path d="M292.743 324.54H280.009V337.274H292.743V324.54Z" fill="black" fill-opacity="0.992126"/>
<path d="M305.477 324.54H292.743V337.274H305.477V324.54Z" fill="black" fill-opacity="0.992126"/>
<path d="M330.945 324.54H318.211V337.274H330.945V324.54Z" fill="black" fill-opacity="0.992126"/>
<path d="M343.679 324.54H330.945V337.274H343.679V324.54Z" fill="black" fill-opacity="0.992126"/>
<path d="M369.148 324.54H356.413V337.274H369.148V324.54Z" fill="black" fill-opacity="0.992126"/>
<path d="M394.616 324.54H381.882V337.274H394.616V324.54Z" fill="black" fill-opacity="0.992126"/>
<path d="M407.35 324.54H394.616V337.274H407.35V324.54Z" fill="black" fill-opacity="0.992126"/>
<path d="M445.552 324.54H432.818V337.274H445.552V324.54Z" fill="black" fill-opacity="0.992126"/>
<path d="M471.021 324.54H458.286V337.274H471.021V324.54Z" fill="black" fill-opacity="0.992126"/>
<path d="M483.755 324.54H471.021V337.274H483.755V324.54Z" fill="black" fill-opacity="0.992126"/>
<path d="M496.489 324.54H483.755V337.274H496.489V324.54Z" fill="black" fill-opacity="0.992126"/>
<path d="M521.957 324.54H509.223V337.274H521.957V324.54Z" fill="black" fill-opacity="0.992126"/>
<path d="M560.159 324.54H547.425V337.274H560.159V324.54Z" fill="black" fill-opacity="0.992126"/>
<path d="M139.933 337.274H127.199V350.009H139.933V337.274Z" fill="black" fill-opacity="0.992126"/>
<path d="M152.667 337.274H139.933V350.009H152.667V337.274Z" fill="black" fill-opacity="0.992126"/>
<path d="M165.401 337.274H152.667V350.009H165.401V337.274Z" fill="black" fill-opacity="0.992126"/>
<path d="M190.87 337.274H178.136V350.009H190.87V337.274Z" fill="black" fill-opacity="0.992126"/>
<path d="M203.604 337.274H190.87V350.009H203.604V337.274Z" fill="black" fill-opacity="0.992126"/>
<path d="M229.072 337.274H216.338V350.009H229.072V337.274Z" fill="black" fill-opacity="0.992126"/>
<path d="M241.806 337.274H229.072V350.009H241.806V337.274Z" fill="black" fill-opacity="0.992126"/>
<path d="M267.274 337.274H254.54V350.009H267.274V337.274Z" fill="black" fill-opacity="0.992126"/>
<path d="M280.009 337.274H267.274V350.009H280.009V337.274Z" fill="black" fill-opacity="0.992126"/>
<path d="M330.945 337.274H318.211V350.009H330.945V337.274Z" fill="black" fill-opacity="0.992126"/>
<path d="M343.679 337.274H330.945V350.009H343.679V337.274Z" fill="black" fill-opacity="0.992126"/>
<path d="M356.413 337.274H343.679V350.009H356.413V337.274Z" fill="black" fill-opacity="0.992126"/>
<path d="M394.616 337.274H381.882V350.009H394.616V337.274Z" fill="black" fill-opacity="0.992126"/>
<path d="M407.35 337.274H394.616V350.009H407.35V337.274Z" fill="black" fill-opacity="0.992126"/>
<path d="M420.084 337.274H407.35V350.009H420.084V337.274Z" fill="black" fill-opacity="0.992126"/>
<path d="M432.818 337.274H420.084V350.009H432.818V337.274Z" fill="black" fill-opacity="0.992126"/>
<path d="M458.286 337.274H445.552V350.009H458.286V337.274Z" fill="black" fill-opacity="0.992126"/>
<path d="M483.755 337.274H471.021V350.009H483.755V337.274Z" fill="black" fill-opacity="0.992126"/>
<path d="M496.489 337.274H483.755V350.009H496.489V337.274Z" fill="black" fill-opacity="0.992126"/>
<path d="M509.223 337.274H496.489V350.009H509.223V337.274Z" fill="black" fill-opacity="0.992126"/>
<path d="M521.957 337.274H509.223V350.009H521.957V337.274Z" fill="black" fill-opacity="0.992126"/>
<path d="M534.691 337.274H521.957V350.009H534.691V337.274Z" fill="black" fill-opacity="0.992126"/>
<path d="M598.362 337.274H585.628V350.009H598.362V337.274Z" fill="black" fill-opacity="0.992126"/>
<path d="M139.933 350.009H127.199V362.743H139.933V350.009Z" fill="black" fill-opacity="0.992126"/>
<path d="M152.667 350.009H139.933V362.743H152.667V350.009Z" fill="black" fill-opacity="0.992126"/>
<path d="M165.401 350.009H152.667V362.743H165.401V350.009Z" fill="black" fill-opacity="0.992126"/>
<path d="M178.136 350.009H165.401V362.743H178.136V350.009Z" fill="black" fill-opacity="0.992126"/>
<path d="M203.604 350.009H190.87V362.743H203.604V350.009Z" fill="black" fill-opacity="0.992126"/>
<path d="M216.338 350.009H203.604V362.743H216.338V350.009Z" fill="black" fill-opacity="0.992126"/>
<path d="M229.072 350.009H216.338V362.743H229.072V350.009Z" fill="black" fill-opacity="0.992126"/>
<path d="M241.806 350.009H229.072V362.743H241.806V350.009Z" fill="black" fill-opacity="0.992126"/>
<path d="M292.743 350.009H280.009V362.743H292.743V350.009Z" fill="black" fill-opacity="0.992126"/>
<path d="M305.477 350.009H292.743V362.743H305.477V350.009Z" fill="black" fill-opacity="0.992126"/>
<path d="M394.616 350.009H381.882V362.743H394.616V350.009Z" fill="black" fill-opacity="0.992126"/>
<path d="M432.818 350.009H420.084V362.743H432.818V350.009Z" fill="black" fill-opacity="0.992126"/>
<path d="M445.552 350.009H432.818V362.743H445.552V350.009Z" fill="black" fill-opacity="0.992126"/>
<path d="M483.755 350.009H471.021V362.743H483.755V350.009Z" fill="black" fill-opacity="0.992126"/>
<path d="M521.957 350.009H509.223V362.743H521.957V350.009Z" fill="black" fill-opacity="0.992126"/>
<path d="M572.894 350.009H560.16V362.743H572.894V350.009Z" fill="black" fill-opacity="0.992126"/>
<path d="M585.628 350.009H572.894V362.743H585.628V350.009Z" fill="black" fill-opacity="0.992126"/>
<path d="M598.362 350.009H585.628V362.743H598.362V350.009Z" fill="black" fill-opacity="0.992126"/>
<path d="M152.667 362.743H139.933V375.477H152.667V362.743Z" fill="black" fill-opacity="0.992126"/>
<path d="M165.401 362.743H152.667V375.477H165.401V362.743Z" fill="black" fill-opacity="0.992126"/>
<path d="M190.87 362.743H178.136V375.477H190.87V362.743Z" fill="black" fill-opacity="0.992126"/>
<path d="M203.604 362.743H190.87V375.477H203.604V362.743Z" fill="black" fill-opacity="0.992126"/>
<path d="M241.806 362.743H229.072V375.477H241.806V362.743Z" fill="black" fill-opacity="0.992126"/>
<path d="M254.54 362.743H241.806V375.477H254.54V362.743Z" fill="black" fill-opacity="0.992126"/>
<path d="M267.274 362.743H254.54V375.477H267.274V362.743Z" fill="black" fill-opacity="0.992126"/>
<path d="M305.477 362.743H292.743V375.477H305.477V362.743Z" fill="black" fill-opacity="0.992126"/>
<path d="M330.945 362.743H318.211V375.477H330.945V362.743Z" fill="black" fill-opacity="0.992126"/>
<path d="M343.679 362.743H330.945V375.477H343.679V362.743Z" fill="black" fill-opacity="0.992126"/>
<path d="M356.413 362.743H343.679V375.477H356.413V362.743Z" fill="black" fill-opacity="0.992126"/>
<path d="M394.616 362.743H381.882V375.477H394.616V362.743Z" fill="black" fill-opacity="0.992126"/>
<path d="M420.084 362.743H407.35V375.477H420.084V362.743Z" fill="black" fill-opacity="0.992126"/>
<path d="M445.552 362.743H432.818V375.477H445.552V362.743Z" fill="black" fill-opacity="0.992126"/>
<path d="M471.021 362.743H458.286V375.477H471.021V362.743Z" fill="black" fill-opacity="0.992126"/>
<path d="M496.489 362.743H483.755V375.477H496.489V362.743Z" fill="black" fill-opacity="0.992126"/>
<path d="M585.628 362.743H572.894V375.477H585.628V362.743Z" fill="black" fill-opacity="0.992126"/>
<path d="M139.933 375.477H127.199V388.211H139.933V375.477Z" fill="black" fill-opacity="0.992126"/>
<path d="M152.667 375.477H139.933V388.211H152.667V375.477Z" fill="black" fill-opacity="0.992126"/>
<path d="M165.401 375.477H152.667V388.211H165.401V375.477Z" fill="black" fill-opacity="0.992126"/>
<path d="M178.136 375.477H165.401V388.211H178.136V375.477Z" fill="black" fill-opacity="0.992126"/>
<path d="M190.87 375.477H178.136V388.211H190.87V375.477Z" fill="black" fill-opacity="0.992126"/>
<path d="M203.604 375.477H190.87V388.211H203.604V375.477Z" fill="black" fill-opacity="0.992126"/>
<path d="M216.338 375.477H203.604V388.211H216.338V375.477Z" fill="black" fill-opacity="0.992126"/>
<path d="M229.072 375.477H216.338V388.211H229.072V375.477Z" fill="black" fill-opacity="0.992126"/>
<path d="M305.477 375.477H292.743V388.211H305.477V375.477Z" fill="black" fill-opacity="0.992126"/>
<path d="M318.211 375.477H305.477V388.211H318.211V375.477Z" fill="black" fill-opacity="0.992126"/>
<path d="M356.413 375.477H343.679V388.211H356.413V375.477Z" fill="black" fill-opacity="0.992126"/>
<path d="M381.882 375.477H369.148V388.211H381.882V375.477Z" fill="black" fill-opacity="0.992126"/>
<path d="M394.616 375.477H381.882V388.211H394.616V375.477Z" fill="black" fill-opacity="0.992126"/>
<path d="M420.084 375.477H407.35V388.211H420.084V375.477Z" fill="black" fill-opacity="0.992126"/>
<path d="M432.818 375.477H420.084V388.211H432.818V375.477Z" fill="black" fill-opacity="0.992126"/>
<path d="M471.021 375.477H458.286V388.211H471.021V375.477Z" fill="black" fill-opacity="0.992126"/>
<path d="M496.489 375.477H483.755V388.211H496.489V375.477Z" fill="black" fill-opacity="0.992126"/>
<path d="M521.957 375.477H509.223V388.211H521.957V375.477Z" fill="black" fill-opacity="0.992126"/>
<path d="M560.159 375.477H547.425V388.211H560.159V375.477Z" fill="black" fill-opacity="0.992126"/>
<path d="M598.362 375.477H585.628V388.211H598.362V375.477Z" fill="black" fill-opacity="0.992126"/>
<path d="M139.933 388.211H127.199V400.945H139.933V388.211Z" fill="black" fill-opacity="0.992126"/>
<path d="M152.667 388.211H139.933V400.945H152.667V388.211Z" fill="black" fill-opacity="0.992126"/>
<path d="M190.87 388.211H178.136V400.945H190.87V388.211Z" fill="black" fill-opacity="0.992126"/>
<path d="M203.604 388.211H190.87V400.945H203.604V388.211Z" fill="black" fill-opacity="0.992126"/>
<path d="M229.072 388.211H216.338V400.945H229.072V388.211Z" fill="black" fill-opacity="0.992126"/>
<path d="M241.806 388.211H229.072V400.945H241.806V388.211Z" fill="black" fill-opacity="0.992126"/>
<path d="M254.54 388.211H241.806V400.945H254.54V388.211Z" fill="black" fill-opacity="0.992126"/>
<path d="M280.009 388.211H267.274V400.945H280.009V388.211Z" fill="black" fill-opacity="0.992126"/>
<path d="M292.743 388.211H280.009V400.945H292.743V388.211Z" fill="black" fill-opacity="0.992126"/>
<path d="M343.679 388.211H330.945V400.945H343.679V388.211Z" fill="black" fill-opacity="0.992126"/>
<path d="M381.882 388.211H369.148V400.945H381.882V388.211Z" fill="black" fill-opacity="0.992126"/>
<path d="M420.084 388.211H407.35V400.945H420.084V388.211Z" fill="black" fill-opacity="0.992126"/>
<path d="M458.286 388.211H445.552V400.945H458.286V388.211Z" fill="black" fill-opacity="0.992126"/>
<path d="M483.755 388.211H471.021V400.945H483.755V388.211Z" fill="black" fill-opacity="0.992126"/>
<path d="M521.957 388.211H509.223V400.945H521.957V388.211Z" fill="black" fill-opacity="0.992126"/>
<path d="M534.691 388.211H521.957V400.945H534.691V388.211Z" fill="black" fill-opacity="0.992126"/>
<path d="M572.894 388.211H560.16V400.945H572.894V388.211Z" fill="black" fill-opacity="0.992126"/>
<path d="M598.362 388.211H585.628V400.945H598.362V388.211Z" fill="black" fill-opacity="0.992126"/>
<path d="M139.933 400.945H127.199V413.679H139.933V400.945Z" fill="black" fill-opacity="0.992126"/>
<path d="M165.401 400.945H152.667V413.679H165.401V400.945Z" fill="black" fill-opacity="0.992126"/>
<path d="M178.136 400.945H165.401V413.679H178.136V400.945Z" fill="black" fill-opacity="0.992126"/>
<path d="M203.604 400.945H190.87V413.679H203.604V400.945Z" fill="black" fill-opacity="0.992126"/>
<path d="M216.338 400.945H203.604V413.679H216.338V400.945Z" fill="black" fill-opacity="0.992126"/>
<path d="M229.072 400.945H216.338V413.679H229.072V400.945Z" fill="black" fill-opacity="0.992126"/>
<path d="M254.54 400.945H241.806V413.679H254.54V400.945Z" fill="black" fill-opacity="0.992126"/>
<path d="M267.274 400.945H254.54V413.679H267.274V400.945Z" fill="black" fill-opacity="0.992126"/>
<path d="M280.009 400.945H267.274V413.679H280.009V400.945Z" fill="black" fill-opacity="0.992126"/>
<path d="M292.743 400.945H280.009V413.679H292.743V400.945Z" fill="black" fill-opacity="0.992126"/>
<path d="M318.211 400.945H305.477V413.679H318.211V400.945Z" fill="black" fill-opacity="0.992126"/>
<path d="M330.945 400.945H318.211V413.679H330.945V400.945Z" fill="black" fill-opacity="0.992126"/>
<path d="M343.679 400.945H330.945V413.679H343.679V400.945Z" fill="black" fill-opacity="0.992126"/>
<path d="M369.148 400.945H356.413V413.679H369.148V400.945Z" fill="black" fill-opacity="0.992126"/>
<path d="M381.882 400.945H369.148V413.679H381.882V400.945Z" fill="black" fill-opacity="0.992126"/>
<path d="M432.818 400.945H420.084V413.679H432.818V400.945Z" fill="black" fill-opacity="0.992126"/>
<path d="M458.286 400.945H445.552V413.679H458.286V400.945Z" fill="black" fill-opacity="0.992126"/>
<path d="M483.755 400.945H471.021V413.679H483.755V400.945Z" fill="black" fill-opacity="0.992126"/>
<path d="M509.223 400.945H496.489V413.679H509.223V400.945Z" fill="black" fill-opacity="0.992126"/>
<path d="M521.957 400.945H509.223V413.679H521.957V400.945Z" fill="black" fill-opacity="0.992126"/>
<path d="M547.425 400.945H534.691V413.679H547.425V400.945Z" fill="black" fill-opacity="0.992126"/>
<path d="M572.894 400.945H560.16V413.679H572.894V400.945Z" fill="black" fill-opacity="0.992126"/>
<path d="M598.362 400.945H585.628V413.679H598.362V400.945Z" fill="black" fill-opacity="0.992126"/>
<path d="M165.401 413.679H152.667V426.413H165.401V413.679Z" fill="black" fill-opacity="0.992126"/>
<path d="M203.604 413.679H190.87V426.413H203.604V413.679Z" fill="black" fill-opacity="0.992126"/>
<path d="M229.072 413.679H216.338V426.413H229.072V413.679Z" fill="black" fill-opacity="0.992126"/>
<path d="M241.806 413.679H229.072V426.413H241.806V413.679Z" fill="black" fill-opacity="0.992126"/>
<path d="M267.274 413.679H254.54V426.413H267.274V413.679Z" fill="black" fill-opacity="0.992126"/>
<path d="M280.009 413.679H267.274V426.413H280.009V413.679Z" fill="black" fill-opacity="0.992126"/>
<path d="M305.477 413.679H292.743V426.413H305.477V413.679Z" fill="black" fill-opacity="0.992126"/>
<path d="M318.211 413.679H305.477V426.413H318.211V413.679Z" fill="black" fill-opacity="0.992126"/>
<path d="M343.679 413.679H330.945V426.413H343.679V413.679Z" fill="black" fill-opacity="0.992126"/>
<path d="M381.882 413.679H369.148V426.413H381.882V413.679Z" fill="black" fill-opacity="0.992126"/>
<path d="M394.616 413.679H381.882V426.413H394.616V413.679Z" fill="black" fill-opacity="0.992126"/>
<path d="M420.084 413.679H407.35V426.413H420.084V413.679Z" fill="black" fill-opacity="0.992126"/>
<path d="M471.021 413.679H458.286V426.413H471.021V413.679Z" fill="black" fill-opacity="0.992126"/>
<path d="M496.489 413.679H483.755V426.413H496.489V413.679Z" fill="black" fill-opacity="0.992126"/>
<path d="M521.957 413.679H509.223V426.413H521.957V413.679Z" fill="black" fill-opacity="0.992126"/>
<path d="M534.691 413.679H521.957V426.413H534.691V413.679Z" fill="black" fill-opacity="0.992126"/>
<path d="M547.425 413.679H534.691V426.413H547.425V413.679Z" fill="black" fill-opacity="0.992126"/>
<path d="M560.159 413.679H547.425V426.413H560.159V413.679Z" fill="black" fill-opacity="0.992126"/>
<path d="M139.933 426.413H127.199V439.148H139.933V426.413Z" fill="black" fill-opacity="0.992126"/>
<path d="M152.667 426.413H139.933V439.148H152.667V426.413Z" fill="black" fill-opacity="0.992126"/>
<path d="M165.401 426.413H152.667V439.148H165.401V426.413Z" fill="black" fill-opacity="0.992126"/>
<path d="M216.338 426.413H203.604V439.148H216.338V426.413Z" fill="black" fill-opacity="0.992126"/>
<path d="M229.072 426.413H216.338V439.148H229.072V426.413Z" fill="black" fill-opacity="0.992126"/>
<path d="M241.806 426.413H229.072V439.148H241.806V426.413Z" fill="black" fill-opacity="0.992126"/>
<path d="M254.54 426.413H241.806V439.148H254.54V426.413Z" fill="black" fill-opacity="0.992126"/>
<path d="M280.009 426.413H267.274V439.148H280.009V426.413Z" fill="black" fill-opacity="0.992126"/>
<path d="M292.743 426.413H280.009V439.148H292.743V426.413Z" fill="black" fill-opacity="0.992126"/>
<path d="M305.477 426.413H292.743V439.148H305.477V426.413Z" fill="black" fill-opacity="0.992126"/>
<path d="M330.945 426.413H318.211V439.148H330.945V426.413Z" fill="black" fill-opacity="0.992126"/>
<path d="M343.679 426.413H330.945V439.148H343.679V426.413Z" fill="black" fill-opacity="0.992126"/>
<path d="M394.616 426.413H381.882V439.148H394.616V426.413Z" fill="black" fill-opacity="0.992126"/>
<path d="M407.35 426.413H394.616V439.148H407.35V426.413Z" fill="black" fill-opacity="0.992126"/>
<path d="M445.552 426.413H432.818V439.148H445.552V426.413Z" fill="black" fill-opacity="0.992126"/>
<path d="M483.755 426.413H471.021V439.148H483.755V426.413Z" fill="black" fill-opacity="0.992126"/>
<path d="M521.957 426.413H509.223V439.148H521.957V426.413Z" fill="black" fill-opacity="0.992126"/>
<path d="M534.691 426.413H521.957V439.148H534.691V426.413Z" fill="black" fill-opacity="0.992126"/>
<path d="M560.159 426.413H547.425V439.148H560.159V426.413Z" fill="black" fill-opacity="0.992126"/>
<path d="M598.362 426.413H585.628V439.148H598.362V426.413Z" fill="black" fill-opacity="0.992126"/>
<path d="M139.933 439.148H127.199V451.882H139.933V439.148Z" fill="black" fill-opacity="0.992126"/>
<path d="M190.87 439.148H178.136V451.882H190.87V439.148Z" fill="black" fill-opacity="0.992126"/>
<path d="M241.806 439.148H229.072V451.882H241.806V439.148Z" fill="black" fill-opacity="0.992126"/>
<path d="M292.743 439.148H280.009V451.882H292.743V439.148Z" fill="black" fill-opacity="0.992126"/>
<path d="M343.679 439.148H330.945V451.882H343.679V439.148Z" fill="black" fill-opacity="0.992126"/>
<path d="M432.818 439.148H420.084V451.882H432.818V439.148Z" fill="black" fill-opacity="0.992126"/>
<path d="M445.552 439.148H432.818V451.882H445.552V439.148Z" fill="black" fill-opacity="0.992126"/>
<path d="M483.755 439.148H471.021V451.882H483.755V439.148Z" fill="black" fill-opacity="0.992126"/>
<path d="M496.489 439.148H483.755V451.882H496.489V439.148Z" fill="black" fill-opacity="0.992126"/>
<path d="M509.223 439.148H496.489V451.882H509.223V439.148Z" fill="black" fill-opacity="0.992126"/>
<path d="M521.957 439.148H509.223V451.882H521.957V439.148Z" fill="black" fill-opacity="0.992126"/>
<path d="M560.159 439.148H547.425V451.882H560.159V439.148Z" fill="black" fill-opacity="0.992126"/>
<path d="M572.894 439.148H560.16V451.882H572.894V439.148Z" fill="black" fill-opacity="0.992126"/>
<path d="M598.362 439.148H585.628V451.882H598.362V439.148Z" fill="black" fill-opacity="0.992126"/>
<path d="M139.933 451.882H127.199V464.616H139.933V451.882Z" fill="black" fill-opacity="0.992126"/>
<path d="M152.667 451.882H139.933V464.616H152.667V451.882Z" fill="black" fill-opacity="0.992126"/>
<path d="M165.401 451.882H152.667V464.616H165.401V451.882Z" fill="black" fill-opacity="0.992126"/>
<path d="M178.136 451.882H165.401V464.616H178.136V451.882Z" fill="black" fill-opacity="0.992126"/>
<path d="M203.604 451.882H190.87V464.616H203.604V451.882Z" fill="black" fill-opacity="0.992126"/>
<path d="M216.338 451.882H203.604V464.616H216.338V451.882Z" fill="black" fill-opacity="0.992126"/>
<path d="M229.072 451.882H216.338V464.616H229.072V451.882Z" fill="black" fill-opacity="0.992126"/>
<path d="M267.274 451.882H254.54V464.616H267.274V451.882Z" fill="black" fill-opacity="0.992126"/>
<path d="M292.743 451.882H280.009V464.616H292.743V451.882Z" fill="black" fill-opacity="0.992126"/>
<path d="M318.211 451.882H305.477V464.616H318.211V451.882Z" fill="black" fill-opacity="0.992126"/>
<path d="M330.945 451.882H318.211V464.616H330.945V451.882Z" fill="black" fill-opacity="0.992126"/>
<path d="M343.679 451.882H330.945V464.616H343.679V451.882Z" fill="black" fill-opacity="0.992126"/>
<path d="M369.148 451.882H356.413V464.616H369.148V451.882Z" fill="black" fill-opacity="0.992126"/>
<path d="M407.35 451.882H394.616V464.616H407.35V451.882Z" fill="black" fill-opacity="0.992126"/>
<path d="M432.818 451.882H420.084V464.616H432.818V451.882Z" fill="black" fill-opacity="0.992126"/>
<path d="M458.286 451.882H445.552V464.616H458.286V451.882Z" fill="black" fill-opacity="0.992126"/>
<path d="M471.021 451.882H458.286V464.616H471.021V451.882Z" fill="black" fill-opacity="0.992126"/>
<path d="M483.755 451.882H471.021V464.616H483.755V451.882Z" fill="black" fill-opacity="0.992126"/>
<path d="M521.957 451.882H509.223V464.616H521.957V451.882Z" fill="black" fill-opacity="0.992126"/>
<path d="M534.691 451.882H521.957V464.616H534.691V451.882Z" fill="black" fill-opacity="0.992126"/>
<path d="M547.425 451.882H534.691V464.616H547.425V451.882Z" fill="black" fill-opacity="0.992126"/>
<path d="M560.159 451.882H547.425V464.616H560.159V451.882Z" fill="black" fill-opacity="0.992126"/>
<path d="M585.628 451.882H572.894V464.616H585.628V451.882Z" fill="black" fill-opacity="0.992126"/>
<path d="M152.667 464.616H139.933V477.35H152.667V464.616Z" fill="black" fill-opacity="0.992126"/>
<path d="M178.136 464.616H165.401V477.35H178.136V464.616Z" fill="black" fill-opacity="0.992126"/>
<path d="M190.87 464.616H178.136V477.35H190.87V464.616Z" fill="black" fill-opacity="0.992126"/>
<path d="M203.604 464.616H190.87V477.35H203.604V464.616Z" fill="black" fill-opacity="0.992126"/>
<path d="M254.54 464.616H241.806V477.35H254.54V464.616Z" fill="black" fill-opacity="0.992126"/>
<path d="M267.274 464.616H254.54V477.35H267.274V464.616Z" fill="black" fill-opacity="0.992126"/>
<path d="M318.211 464.616H305.477V477.35H318.211V464.616Z" fill="black" fill-opacity="0.992126"/>
<path d="M330.945 464.616H318.211V477.35H330.945V464.616Z" fill="black" fill-opacity="0.992126"/>
<path d="M369.148 464.616H356.413V477.35H369.148V464.616Z" fill="black" fill-opacity="0.992126"/>
<path d="M381.882 464.616H369.148V477.35H381.882V464.616Z" fill="black" fill-opacity="0.992126"/>
<path d="M407.35 464.616H394.616V477.35H407.35V464.616Z" fill="black" fill-opacity="0.992126"/>
<path d="M432.818 464.616H420.084V477.35H432.818V464.616Z" fill="black" fill-opacity="0.992126"/>
<path d="M445.552 464.616H432.818V477.35H445.552V464.616Z" fill="black" fill-opacity="0.992126"/>
<path d="M471.021 464.616H458.286V477.35H471.021V464.616Z" fill="black" fill-opacity="0.992126"/>
<path d="M483.755 464.616H471.021V477.35H483.755V464.616Z" fill="black" fill-opacity="0.992126"/>
<path d="M534.691 464.616H521.957V477.35H534.691V464.616Z" fill="black" fill-opacity="0.992126"/>
<path d="M560.159 464.616H547.425V477.35H560.159V464.616Z" fill="black" fill-opacity="0.992126"/>
<path d="M152.667 477.35H139.933V490.084H152.667V477.35Z" fill="black" fill-opacity="0.992126"/>
<path d="M165.401 477.35H152.667V490.084H165.401V477.35Z" fill="black" fill-opacity="0.992126"/>
<path d="M216.338 477.35H203.604V490.084H216.338V477.35Z" fill="black" fill-opacity="0.992126"/>
<path d="M229.072 477.35H216.338V490.084H229.072V477.35Z" fill="black" fill-opacity="0.992126"/>
<path d="M280.009 477.35H267.274V490.084H280.009V477.35Z" fill="black" fill-opacity="0.992126"/>
<path d="M292.743 477.35H280.009V490.084H292.743V477.35Z" fill="black" fill-opacity="0.992126"/>
<path d="M343.679 477.35H330.945V490.084H343.679V477.35Z" fill="black" fill-opacity="0.992126"/>
<path d="M381.882 477.35H369.148V490.084H381.882V477.35Z" fill="black" fill-opacity="0.992126"/>
<path d="M394.616 477.35H381.882V490.084H394.616V477.35Z" fill="black" fill-opacity="0.992126"/>
<path d="M420.084 477.35H407.35V490.084H420.084V477.35Z" fill="black" fill-opacity="0.992126"/>
<path d="M445.552 477.35H432.818V490.084H445.552V477.35Z" fill="black" fill-opacity="0.992126"/>
<path d="M471.021 477.35H458.286V490.084H471.021V477.35Z" fill="black" fill-opacity="0.992126"/>
<path d="M483.755 477.35H471.021V490.084H483.755V477.35Z" fill="black" fill-opacity="0.992126"/>
<path d="M509.223 477.35H496.489V490.084H509.223V477.35Z" fill="black" fill-opacity="0.992126"/>
<path d="M521.957 477.35H509.223V490.084H521.957V477.35Z" fill="black" fill-opacity="0.992126"/>
<path d="M585.628 477.35H572.894V490.084H585.628V477.35Z" fill="black" fill-opacity="0.992126"/>
<path d="M598.362 477.35H585.628V490.084H598.362V477.35Z" fill="black" fill-opacity="0.992126"/>
<path d="M165.401 490.084H152.667V502.818H165.401V490.084Z" fill="black" fill-opacity="0.992126"/>
<path d="M229.072 490.084H216.338V502.818H229.072V490.084Z" fill="black" fill-opacity="0.992126"/>
<path d="M241.806 490.084H229.072V502.818H241.806V490.084Z" fill="black" fill-opacity="0.992126"/>
<path d="M254.54 490.084H241.806V502.818H254.54V490.084Z" fill="black" fill-opacity="0.992126"/>
<path d="M267.274 490.084H254.54V502.818H267.274V490.084Z" fill="black" fill-opacity="0.992126"/>
<path d="M292.743 490.084H280.009V502.818H292.743V490.084Z" fill="black" fill-opacity="0.992126"/>
<path d="M305.477 490.084H292.743V502.818H305.477V490.084Z" fill="black" fill-opacity="0.992126"/>
<path d="M356.413 490.084H343.679V502.818H356.413V490.084Z" fill="black" fill-opacity="0.992126"/>
<path d="M369.148 490.084H356.413V502.818H369.148V490.084Z" fill="black" fill-opacity="0.992126"/>
<path d="M381.882 490.084H369.148V502.818H381.882V490.084Z" fill="black" fill-opacity="0.992126"/>
<path d="M407.35 490.084H394.616V502.818H407.35V490.084Z" fill="black" fill-opacity="0.992126"/>
<path d="M432.818 490.084H420.084V502.818H432.818V490.084Z" fill="black" fill-opacity="0.992126"/>
<path d="M445.552 490.084H432.818V502.818H445.552V490.084Z" fill="black" fill-opacity="0.992126"/>
<path d="M458.286 490.084H445.552V502.818H458.286V490.084Z" fill="black" fill-opacity="0.992126"/>
<path d="M483.755 490.084H471.021V502.818H483.755V490.084Z" fill="black" fill-opacity="0.992126"/>
<path d="M496.489 490.084H483.755V502.818H496.489V490.084Z" fill="black" fill-opacity="0.992126"/>
<path d="M521.957 490.084H509.223V502.818H521.957V490.084Z" fill="black" fill-opacity="0.992126"/>
<path d="M534.691 490.084H521.957V502.818H534.691V490.084Z" fill="black" fill-opacity="0.992126"/>
<path d="M585.628 490.084H572.894V502.818H585.628V490.084Z" fill="black" fill-opacity="0.992126"/>
<path d="M598.362 490.084H585.628V502.818H598.362V490.084Z" fill="black" fill-opacity="0.992126"/>
<path d="M139.933 502.818H127.199V515.552H139.933V502.818Z" fill="black" fill-opacity="0.992126"/>
<path d="M152.667 502.818H139.933V515.552H152.667V502.818Z" fill="black" fill-opacity="0.992126"/>
<path d="M165.401 502.818H152.667V515.552H165.401V502.818Z" fill="black" fill-opacity="0.992126"/>
<path d="M203.604 502.818H190.87V515.552H203.604V502.818Z" fill="black" fill-opacity="0.992126"/>
<path d="M216.338 502.818H203.604V515.552H216.338V502.818Z" fill="black" fill-opacity="0.992126"/>
<path d="M229.072 502.818H216.338V515.552H229.072V502.818Z" fill="black" fill-opacity="0.992126"/>
<path d="M254.54 502.818H241.806V515.552H254.54V502.818Z" fill="black" fill-opacity="0.992126"/>
<path d="M280.009 502.818H267.274V515.552H280.009V502.818Z" fill="black" fill-opacity="0.992126"/>
<path d="M330.945 502.818H318.211V515.552H330.945V502.818Z" fill="black" fill-opacity="0.992126"/>
<path d="M343.679 502.818H330.945V515.552H343.679V502.818Z" fill="black" fill-opacity="0.992126"/>
<path d="M369.148 502.818H356.413V515.552H369.148V502.818Z" fill="black" fill-opacity="0.992126"/>
<path d="M381.882 502.818H369.148V515.552H381.882V502.818Z" fill="black" fill-opacity="0.992126"/>
<path d="M407.35 502.818H394.616V515.552H407.35V502.818Z" fill="black" fill-opacity="0.992126"/>
<path d="M420.084 502.818H407.35V515.552H420.084V502.818Z" fill="black" fill-opacity="0.992126"/>
<path d="M432.818 502.818H420.084V515.552H432.818V502.818Z" fill="black" fill-opacity="0.992126"/>
<path d="M445.552 502.818H432.818V515.552H445.552V502.818Z" fill="black" fill-opacity="0.992126"/>
<path d="M483.755 502.818H471.021V515.552H483.755V502.818Z" fill="black" fill-opacity="0.992126"/>
<path d="M496.489 502.818H483.755V515.552H496.489V502.818Z" fill="black" fill-opacity="0.992126"/>
<path d="M547.425 502.818H534.691V515.552H547.425V502.818Z" fill="black" fill-opacity="0.992126"/>
<path d="M560.159 502.818H547.425V515.552H560.159V502.818Z" fill="black" fill-opacity="0.992126"/>
<path d="M598.362 502.818H585.628V515.552H598.362V502.818Z" fill="black" fill-opacity="0.992126"/>
<path d="M152.667 515.552H139.933V528.286H152.667V515.552Z" fill="black" fill-opacity="0.992126"/>
<path d="M203.604 515.552H190.87V528.286H203.604V515.552Z" fill="black" fill-opacity="0.992126"/>
<path d="M280.009 515.552H267.274V528.286H280.009V515.552Z" fill="black" fill-opacity="0.992126"/>
<path d="M305.477 515.552H292.743V528.286H305.477V515.552Z" fill="black" fill-opacity="0.992126"/>
<path d="M318.211 515.552H305.477V528.286H318.211V515.552Z" fill="black" fill-opacity="0.992126"/>
<path d="M330.945 515.552H318.211V528.286H330.945V515.552Z" fill="black" fill-opacity="0.992126"/>
<path d="M381.882 515.552H369.148V528.286H381.882V515.552Z" fill="black" fill-opacity="0.992126"/>
<path d="M420.084 515.552H407.35V528.286H420.084V515.552Z" fill="black" fill-opacity="0.992126"/>
<path d="M445.552 515.552H432.818V528.286H445.552V515.552Z" fill="black" fill-opacity="0.992126"/>
<path d="M471.021 515.552H458.286V528.286H471.021V515.552Z" fill="black" fill-opacity="0.992126"/>
<path d="M496.489 515.552H483.755V528.286H496.489V515.552Z" fill="black" fill-opacity="0.992126"/>
<path d="M521.957 515.552H509.223V528.286H521.957V515.552Z" fill="black" fill-opacity="0.992126"/>
<path d="M534.691 515.552H521.957V528.286H534.691V515.552Z" fill="black" fill-opacity="0.992126"/>
<path d="M560.159 515.552H547.425V528.286H560.159V515.552Z" fill="black" fill-opacity="0.992126"/>
<path d="M598.362 515.552H585.628V528.286H598.362V515.552Z" fill="black" fill-opacity="0.992126"/>
<path d="M139.933 528.286H127.199V541.021H139.933V528.286Z" fill="black" fill-opacity="0.992126"/>
<path d="M152.667 528.286H139.933V541.021H152.667V528.286Z" fill="black" fill-opacity="0.992126"/>
<path d="M190.87 528.286H178.136V541.021H190.87V528.286Z" fill="black" fill-opacity="0.992126"/>
<path d="M216.338 528.286H203.604V541.021H216.338V528.286Z" fill="black" fill-opacity="0.992126"/>
<path d="M229.072 528.286H216.338V541.021H229.072V528.286Z" fill="black" fill-opacity="0.992126"/>
<path d="M241.806 528.286H229.072V541.021H241.806V528.286Z" fill="black" fill-opacity="0.992126"/>
<path d="M267.274 528.286H254.54V541.021H267.274V528.286Z" fill="black" fill-opacity="0.992126"/>
<path d="M280.009 528.286H267.274V541.021H280.009V528.286Z" fill="black" fill-opacity="0.992126"/>
<path d="M356.413 528.286H343.679V541.021H356.413V528.286Z" fill="black" fill-opacity="0.992126"/>
<path d="M369.148 528.286H356.413V541.021H369.148V528.286Z" fill="black" fill-opacity="0.992126"/>
<path d="M407.35 528.286H394.616V541.021H407.35V528.286Z" fill="black" fill-opacity="0.992126"/>
<path d="M420.084 528.286H407.35V541.021H420.084V528.286Z" fill="black" fill-opacity="0.992126"/>
<path d="M445.552 528.286H432.818V541.021H445.552V528.286Z" fill="black" fill-opacity="0.992126"/>
<path d="M471.021 528.286H458.286V541.021H471.021V528.286Z" fill="black" fill-opacity="0.992126"/>
<path d="M483.755 528.286H471.021V541.021H483.755V528.286Z" fill="black" fill-opacity="0.992126"/>
<path d="M496.489 528.286H483.755V541.021H496.489V528.286Z" fill="black" fill-opacity="0.992126"/>
<path d="M521.957 528.286H509.223V541.021H521.957V528.286Z" fill="black" fill-opacity="0.992126"/>
<path d="M534.691 528.286H521.957V541.021H534.691V528.286Z" fill="black" fill-opacity="0.992126"/>
<path d="M560.159 528.286H547.425V541.021H560.159V528.286Z" fill="black" fill-opacity="0.992126"/>
<path d="M585.628 528.286H572.894V541.021H585.628V528.286Z" fill="black" fill-opacity="0.992126"/>
<path d="M598.362 528.286H585.628V541.021H598.362V528.286Z" fill="black" fill-opacity="0.992126"/>
<path d="M165.401 541.021H152.667V553.755H165.401V541.021Z" fill="black" fill-opacity="0.992126"/>
<path d="M190.87 541.021H178.136V553.755H190.87V541.021Z" fill="black" fill-opacity="0.992126"/>
<path d="M203.604 541.021H190.87V553.755H203.604V541.021Z" fill="black" fill-opacity="0.992126"/>
<path d="M254.54 541.021H241.806V553.755H254.54V541.021Z" fill="black" fill-opacity="0.992126"/>
<path d="M267.274 541.021H254.54V553.755H267.274V541.021Z" fill="black" fill-opacity="0.992126"/>
<path d="M280.009 541.021H267.274V553.755H280.009V541.021Z" fill="black" fill-opacity="0.992126"/>
<path d="M356.413 541.021H343.679V553.755H356.413V541.021Z" fill="black" fill-opacity="0.992126"/>
<path d="M369.148 541.021H356.413V553.755H369.148V541.021Z" fill="black" fill-opacity="0.992126"/>
<path d="M381.882 541.021H369.148V553.755H381.882V541.021Z" fill="black" fill-opacity="0.992126"/>
<path d="M420.084 541.021H407.35V553.755H420.084V541.021Z" fill="black" fill-opacity="0.992126"/>
<path d="M432.818 541.021H420.084V553.755H432.818V541.021Z" fill="black" fill-opacity="0.992126"/>
<path d="M445.552 541.021H432.818V553.755H445.552V541.021Z" fill="black" fill-opacity="0.992126"/>
<path d="M458.286 541.021H445.552V553.755H458.286V541.021Z" fill="black" fill-opacity="0.992126"/>
<path d="M483.755 541.021H471.021V553.755H483.755V541.021Z" fill="black" fill-opacity="0.992126"/>
<path d="M496.489 541.021H483.755V553.755H496.489V541.021Z" fill="black" fill-opacity="0.992126"/>
<path d="M509.223 541.021H496.489V553.755H509.223V541.021Z" fill="black" fill-opacity="0.992126"/>
<path d="M521.957 541.021H509.223V553.755H521.957V541.021Z" fill="black" fill-opacity="0.992126"/>
<path d="M534.691 541.021H521.957V553.755H534.691V541.021Z" fill="black" fill-opacity="0.992126"/>
<path d="M560.159 541.021H547.425V553.755H560.159V541.021Z" fill="black" fill-opacity="0.992126"/>
<path d="M585.628 541.021H572.894V553.755H585.628V541.021Z" fill="black" fill-opacity="0.992126"/>
<path d="M598.362 541.021H585.628V553.755H598.362V541.021Z" fill="black" fill-opacity="0.992126"/>
<path d="M139.933 553.755H127.199V566.489H139.933V553.755Z" fill="black" fill-opacity="0.992126"/>
<path d="M152.667 553.755H139.933V566.489H152.667V553.755Z" fill="black" fill-opacity="0.992126"/>
<path d="M165.401 553.755H152.667V566.489H165.401V553.755Z" fill="black" fill-opacity="0.992126"/>
<path d="M178.136 553.755H165.401V566.489H178.136V553.755Z" fill="black" fill-opacity="0.992126"/>
<path d="M190.87 553.755H178.136V566.489H190.87V553.755Z" fill="black" fill-opacity="0.992126"/>
<path d="M203.604 553.755H190.87V566.489H203.604V553.755Z" fill="black" fill-opacity="0.992126"/>
<path d="M216.338 553.755H203.604V566.489H216.338V553.755Z" fill="black" fill-opacity="0.992126"/>
<path d="M229.072 553.755H216.338V566.489H229.072V553.755Z" fill="black" fill-opacity="0.992126"/>
<path d="M241.806 553.755H229.072V566.489H241.806V553.755Z" fill="black" fill-opacity="0.992126"/>
<path d="M254.54 553.755H241.806V566.489H254.54V553.755Z" fill="black" fill-opacity="0.992126"/>
<path d="M318.211 553.755H305.477V566.489H318.211V553.755Z" fill="black" fill-opacity="0.992126"/>
<path d="M369.148 553.755H356.413V566.489H369.148V553.755Z" fill="black" fill-opacity="0.992126"/>
<path d="M381.882 553.755H369.148V566.489H381.882V553.755Z" fill="black" fill-opacity="0.992126"/>
<path d="M394.616 553.755H381.882V566.489H394.616V553.755Z" fill="black" fill-opacity="0.992126"/>
<path d="M445.552 553.755H432.818V566.489H445.552V553.755Z" fill="black" fill-opacity="0.992126"/>
<path d="M483.755 553.755H471.021V566.489H483.755V553.755Z" fill="black" fill-opacity="0.992126"/>
<path d="M496.489 553.755H483.755V566.489H496.489V553.755Z" fill="black" fill-opacity="0.992126"/>
<path d="M509.223 553.755H496.489V566.489H509.223V553.755Z" fill="black" fill-opacity="0.992126"/>
<path d="M521.957 553.755H509.223V566.489H521.957V553.755Z" fill="black" fill-opacity="0.992126"/>
<path d="M534.691 553.755H521.957V566.489H534.691V553.755Z" fill="black" fill-opacity="0.992126"/>
<path d="M547.425 553.755H534.691V566.489H547.425V553.755Z" fill="black" fill-opacity="0.992126"/>
<path d="M585.628 553.755H572.894V566.489H585.628V553.755Z" fill="black" fill-opacity="0.992126"/>
<path d="M598.362 553.755H585.628V566.489H598.362V553.755Z" fill="black" fill-opacity="0.992126"/>
<path d="M241.806 566.489H229.072V579.223H241.806V566.489Z" fill="black" fill-opacity="0.992126"/>
<path d="M280.009 566.489H267.274V579.223H280.009V566.489Z" fill="black" fill-opacity="0.992126"/>
<path d="M292.743 566.489H280.009V579.223H292.743V566.489Z" fill="black" fill-opacity="0.992126"/>
<path d="M330.945 566.489H318.211V579.223H330.945V566.489Z" fill="black" fill-opacity="0.992126"/>
<path d="M343.679 566.489H330.945V579.223H343.679V566.489Z" fill="black" fill-opacity="0.992126"/>
<path d="M356.413 566.489H343.679V579.223H356.413V566.489Z" fill="black" fill-opacity="0.992126"/>
<path d="M407.35 566.489H394.616V579.223H407.35V566.489Z" fill="black" fill-opacity="0.992126"/>
<path d="M420.084 566.489H407.35V579.223H420.084V566.489Z" fill="black" fill-opacity="0.992126"/>
<path d="M432.818 566.489H420.084V579.223H432.818V566.489Z" fill="black" fill-opacity="0.992126"/>
<path d="M445.552 566.489H432.818V579.223H445.552V566.489Z" fill="black" fill-opacity="0.992126"/>
<path d="M471.021 566.489H458.286V579.223H471.021V566.489Z" fill="black" fill-opacity="0.992126"/>
<path d="M483.755 566.489H471.021V579.223H483.755V566.489Z" fill="black" fill-opacity="0.992126"/>
<path d="M496.489 566.489H483.755V579.223H496.489V566.489Z" fill="black" fill-opacity="0.992126"/>
<path d="M547.425 566.489H534.691V579.223H547.425V566.489Z" fill="black" fill-opacity="0.992126"/>
<path d="M560.159 566.489H547.425V579.223H560.159V566.489Z" fill="black" fill-opacity="0.992126"/>
<path d="M585.628 566.489H572.894V579.223H585.628V566.489Z" fill="black" fill-opacity="0.992126"/>
<path d="M139.933 579.223H127.199V591.957H139.933V579.223Z" fill="black" fill-opacity="0.992126"/>
<path d="M152.667 579.223H139.933V591.957H152.667V579.223Z" fill="black" fill-opacity="0.992126"/>
<path d="M165.401 579.223H152.667V591.957H165.401V579.223Z" fill="black" fill-opacity="0.992126"/>
<path d="M178.136 579.223H165.401V591.957H178.136V579.223Z" fill="black" fill-opacity="0.992126"/>
<path d="M190.87 579.223H178.136V591.957H190.87V579.223Z" fill="black" fill-opacity="0.992126"/>
<path d="M203.604 579.223H190.87V591.957H203.604V579.223Z" fill="black" fill-opacity="0.992126"/>
<path d="M216.338 579.223H203.604V591.957H216.338V579.223Z" fill="black" fill-opacity="0.992126"/>
<path d="M241.806 579.223H229.072V591.957H241.806V579.223Z" fill="black" fill-opacity="0.992126"/>
<path d="M267.274 579.223H254.54V591.957H267.274V579.223Z" fill="black" fill-opacity="0.992126"/>
<path d="M330.945 579.223H318.211V591.957H330.945V579.223Z" fill="black" fill-opacity="0.992126"/>
<path d="M381.882 579.223H369.148V591.957H381.882V579.223Z" fill="black" fill-opacity="0.992126"/>
<path d="M445.552 579.223H432.818V591.957H445.552V579.223Z" fill="black" fill-opacity="0.992126"/>
<path d="M471.021 579.223H458.286V591.957H471.021V579.223Z" fill="black" fill-opacity="0.992126"/>
<path d="M496.489 579.223H483.755V591.957H496.489V579.223Z" fill="black" fill-opacity="0.992126"/>
<path d="M521.957 579.223H509.223V591.957H521.957V579.223Z" fill="black" fill-opacity="0.992126"/>
<path d="M547.425 579.223H534.691V591.957H547.425V579.223Z" fill="black" fill-opacity="0.992126"/>
<path d="M560.159 579.223H547.425V591.957H560.159V579.223Z" fill="black" fill-opacity="0.992126"/>
<path d="M139.933 591.957H127.199V604.691H139.933V591.957Z" fill="black" fill-opacity="0.992126"/>
<path d="M216.338 591.957H203.604V604.691H216.338V591.957Z" fill="black" fill-opacity="0.992126"/>
<path d="M241.806 591.957H229.072V604.691H241.806V591.957Z" fill="black" fill-opacity="0.992126"/>
<path d="M267.274 591.957H254.54V604.691H267.274V591.957Z" fill="black" fill-opacity="0.992126"/>
<path d="M292.743 591.957H280.009V604.691H292.743V591.957Z" fill="black" fill-opacity="0.992126"/>
<path d="M305.477 591.957H292.743V604.691H305.477V591.957Z" fill="black" fill-opacity="0.992126"/>
<path d="M318.211 591.957H305.477V604.691H318.211V591.957Z" fill="black" fill-opacity="0.992126"/>
<path d="M330.945 591.957H318.211V604.691H330.945V591.957Z" fill="black" fill-opacity="0.992126"/>
<path d="M343.679 591.957H330.945V604.691H343.679V591.957Z" fill="black" fill-opacity="0.992126"/>
<path d="M369.148 591.957H356.413V604.691H369.148V591.957Z" fill="black" fill-opacity="0.992126"/>
<path d="M432.818 591.957H420.084V604.691H432.818V591.957Z" fill="black" fill-opacity="0.992126"/>
<path d="M471.021 591.957H458.286V604.691H471.021V591.957Z" fill="black" fill-opacity="0.992126"/>
<path d="M483.755 591.957H471.021V604.691H483.755V591.957Z" fill="black" fill-opacity="0.992126"/>
<path d="M496.489 591.957H483.755V604.691H496.489V591.957Z" fill="black" fill-opacity="0.992126"/>
<path d="M547.425 591.957H534.691V604.691H547.425V591.957Z" fill="black" fill-opacity="0.992126"/>
<path d="M572.894 591.957H560.16V604.691H572.894V591.957Z" fill="black" fill-opacity="0.992126"/>
<path d="M598.362 591.957H585.628V604.691H598.362V591.957Z" fill="black" fill-opacity="0.992126"/>
<path d="M139.933 604.691H127.199V617.425H139.933V604.691Z" fill="black" fill-opacity="0.992126"/>
<path d="M165.401 604.691H152.667V617.425H165.401V604.691Z" fill="black" fill-opacity="0.992126"/>
<path d="M178.136 604.691H165.401V617.425H178.136V604.691Z" fill="black" fill-opacity="0.992126"/>
<path d="M190.87 604.691H178.136V617.425H190.87V604.691Z" fill="black" fill-opacity="0.992126"/>
<path d="M216.338 604.691H203.604V617.425H216.338V604.691Z" fill="black" fill-opacity="0.992126"/>
<path d="M267.274 604.691H254.54V617.425H267.274V604.691Z" fill="black" fill-opacity="0.992126"/>
<path d="M280.009 604.691H267.274V617.425H280.009V604.691Z" fill="black" fill-opacity="0.992126"/>
<path d="M292.743 604.691H280.009V617.425H292.743V604.691Z" fill="black" fill-opacity="0.992126"/>
<path d="M330.945 604.691H318.211V617.425H330.945V604.691Z" fill="black" fill-opacity="0.992126"/>
<path d="M381.882 604.691H369.148V617.425H381.882V604.691Z" fill="black" fill-opacity="0.992126"/>
<path d="M407.35 604.691H394.616V617.425H407.35V604.691Z" fill="black" fill-opacity="0.992126"/>
<path d="M420.084 604.691H407.35V617.425H420.084V604.691Z" fill="black" fill-opacity="0.992126"/>
<path d="M432.818 604.691H420.084V617.425H432.818V604.691Z" fill="black" fill-opacity="0.992126"/>
<path d="M445.552 604.691H432.818V617.425H445.552V604.691Z" fill="black" fill-opacity="0.992126"/>
<path d="M458.286 604.691H445.552V617.425H458.286V604.691Z" fill="black" fill-opacity="0.992126"/>
<path d="M496.489 604.691H483.755V617.425H496.489V604.691Z" fill="black" fill-opacity="0.992126"/>
<path d="M509.223 604.691H496.489V617.425H509.223V604.691Z" fill="black" fill-opacity="0.992126"/>
<path d="M521.957 604.691H509.223V617.425H521.957V604.691Z" fill="black" fill-opacity="0.992126"/>
<path d="M534.691 604.691H521.957V617.425H534.691V604.691Z" fill="black" fill-opacity="0.992126"/>
<path d="M547.425 604.691H534.691V617.425H547.425V604.691Z" fill="black" fill-opacity="0.992126"/>
<path d="M560.159 604.691H547.425V617.425H560.159V604.691Z" fill="black" fill-opacity="0.992126"/>
<path d="M572.894 604.691H560.16V617.425H572.894V604.691Z" fill="black" fill-opacity="0.992126"/>
<path d="M598.362 604.691H585.628V617.425H598.362V604.691Z" fill="black" fill-opacity="0.992126"/>
<path d="M139.933 617.425H127.199V630.159H139.933V617.425Z" fill="black" fill-opacity="0.992126"/>
<path d="M165.401 617.425H152.667V630.159H165.401V617.425Z" fill="black" fill-opacity="0.992126"/>
<path d="M178.136 617.425H165.401V630.159H178.136V617.425Z" fill="black" fill-opacity="0.992126"/>
<path d="M190.87 617.425H178.136V630.159H190.87V617.425Z" fill="black" fill-opacity="0.992126"/>
<path d="M216.338 617.425H203.604V630.159H216.338V617.425Z" fill="black" fill-opacity="0.992126"/>
<path d="M267.274 617.425H254.54V630.159H267.274V617.425Z" fill="black" fill-opacity="0.992126"/>
<path d="M318.211 617.425H305.477V630.159H318.211V617.425Z" fill="black" fill-opacity="0.992126"/>
<path d="M330.945 617.425H318.211V630.159H330.945V617.425Z" fill="black" fill-opacity="0.992126"/>
<path d="M369.148 617.425H356.413V630.159H369.148V617.425Z" fill="black" fill-opacity="0.992126"/>
<path d="M381.882 617.425H369.148V630.159H381.882V617.425Z" fill="black" fill-opacity="0.992126"/>
<path d="M394.616 617.425H381.882V630.159H394.616V617.425Z" fill="black" fill-opacity="0.992126"/>
<path d="M496.489 617.425H483.755V630.159H496.489V617.425Z" fill="black" fill-opacity="0.992126"/>
<path d="M534.691 617.425H521.957V630.159H534.691V617.425Z" fill="black" fill-opacity="0.992126"/>
<path d="M560.159 617.425H547.425V630.159H560.159V617.425Z" fill="black" fill-opacity="0.992126"/>
<path d="M585.628 617.425H572.894V630.159H585.628V617.425Z" fill="black" fill-opacity="0.992126"/>
<path d="M139.933 630.16H127.199V642.894H139.933V630.16Z" fill="black" fill-opacity="0.992126"/>
<path d="M165.401 630.16H152.667V642.894H165.401V630.16Z" fill="black" fill-opacity="0.992126"/>
<path d="M178.136 630.16H165.401V642.894H178.136V630.16Z" fill="black" fill-opacity="0.992126"/>
<path d="M190.87 630.16H178.136V642.894H190.87V630.16Z" fill="black" fill-opacity="0.992126"/>
<path d="M216.338 630.16H203.604V642.894H216.338V630.16Z" fill="black" fill-opacity="0.992126"/>
<path d="M241.806 630.16H229.072V642.894H241.806V630.16Z" fill="black" fill-opacity="0.992126"/>
<path d="M254.54 630.16H241.806V642.894H254.54V630.16Z" fill="black" fill-opacity="0.992126"/>
<path d="M305.477 630.16H292.743V642.894H305.477V630.16Z" fill="black" fill-opacity="0.992126"/>
<path d="M343.679 630.16H330.945V642.894H343.679V630.16Z" fill="black" fill-opacity="0.992126"/>
<path d="M369.148 630.16H356.413V642.894H369.148V630.16Z" fill="black" fill-opacity="0.992126"/>
<path d="M381.882 630.16H369.148V642.894H381.882V630.16Z" fill="black" fill-opacity="0.992126"/>
<path d="M407.35 630.16H394.616V642.894H407.35V630.16Z" fill="black" fill-opacity="0.992126"/>
<path d="M432.818 630.16H420.084V642.894H432.818V630.16Z" fill="black" fill-opacity="0.992126"/>
<path d="M445.552 630.16H432.818V642.894H445.552V630.16Z" fill="black" fill-opacity="0.992126"/>
<path d="M496.489 630.16H483.755V642.894H496.489V630.16Z" fill="black" fill-opacity="0.992126"/>
<path d="M509.223 630.16H496.489V642.894H509.223V630.16Z" fill="black" fill-opacity="0.992126"/>
<path d="M521.957 630.16H509.223V642.894H521.957V630.16Z" fill="black" fill-opacity="0.992126"/>
<path d="M547.425 630.16H534.691V642.894H547.425V630.16Z" fill="black" fill-opacity="0.992126"/>
<path d="M585.628 630.16H572.894V642.894H585.628V630.16Z" fill="black" fill-opacity="0.992126"/>
<path d="M598.362 630.16H585.628V642.894H598.362V630.16Z" fill="black" fill-opacity="0.992126"/>
<path d="M139.933 642.894H127.199V655.628H139.933V642.894Z" fill="black" fill-opacity="0.992126"/>
<path d="M216.338 642.894H203.604V655.628H216.338V642.894Z" fill="black" fill-opacity="0.992126"/>
<path d="M267.274 642.894H254.54V655.628H267.274V642.894Z" fill="black" fill-opacity="0.992126"/>
<path d="M280.009 642.894H267.274V655.628H280.009V642.894Z" fill="black" fill-opacity="0.992126"/>
<path d="M292.743 642.894H280.009V655.628H292.743V642.894Z" fill="black" fill-opacity="0.992126"/>
<path d="M305.477 642.894H292.743V655.628H305.477V642.894Z" fill="black" fill-opacity="0.992126"/>
<path d="M318.211 642.894H305.477V655.628H318.211V642.894Z" fill="black" fill-opacity="0.992126"/>
<path d="M330.945 642.894H318.211V655.628H330.945V642.894Z" fill="black" fill-opacity="0.992126"/>
<path d="M343.679 642.894H330.945V655.628H343.679V642.894Z" fill="black" fill-opacity="0.992126"/>
<path d="M356.413 642.894H343.679V655.628H356.413V642.894Z" fill="black" fill-opacity="0.992126"/>
<path d="M381.882 642.894H369.148V655.628H381.882V642.894Z" fill="black" fill-opacity="0.992126"/>
<path d="M394.616 642.894H381.882V655.628H394.616V642.894Z" fill="black" fill-opacity="0.992126"/>
<path d="M420.084 642.894H407.35V655.628H420.084V642.894Z" fill="black" fill-opacity="0.992126"/>
<path d="M471.021 642.894H458.286V655.628H471.021V642.894Z" fill="black" fill-opacity="0.992126"/>
<path d="M509.223 642.894H496.489V655.628H509.223V642.894Z" fill="black" fill-opacity="0.992126"/>
<path d="M547.425 642.894H534.691V655.628H547.425V642.894Z" fill="black" fill-opacity="0.992126"/>
<path d="M560.159 642.894H547.425V655.628H560.159V642.894Z" fill="black" fill-opacity="0.992126"/>
<path d="M585.628 642.894H572.894V655.628H585.628V642.894Z" fill="black" fill-opacity="0.992126"/>
<path d="M598.362 642.894H585.628V655.628H598.362V642.894Z" fill="black" fill-opacity="0.992126"/>
<path d="M139.933 655.628H127.199V668.362H139.933V655.628Z" fill="black" fill-opacity="0.992126"/>
<path d="M152.667 655.628H139.933V668.362H152.667V655.628Z" fill="black" fill-opacity="0.992126"/>
<path d="M165.401 655.628H152.667V668.362H165.401V655.628Z" fill="black" fill-opacity="0.992126"/>
<path d="M178.136 655.628H165.401V668.362H178.136V655.628Z" fill="black" fill-opacity="0.992126"/>
<path d="M190.87 655.628H178.136V668.362H190.87V655.628Z" fill="black" fill-opacity="0.992126"/>
<path d="M203.604 655.628H190.87V668.362H203.604V655.628Z" fill="black" fill-opacity="0.992126"/>
<path d="M216.338 655.628H203.604V668.362H216.338V655.628Z" fill="black" fill-opacity="0.992126"/>
<path d="M318.211 655.628H305.477V668.362H318.211V655.628Z" fill="black" fill-opacity="0.992126"/>
<path d="M330.945 655.628H318.211V668.362H330.945V655.628Z" fill="black" fill-opacity="0.992126"/>
<path d="M369.148 655.628H356.413V668.362H369.148V655.628Z" fill="black" fill-opacity="0.992126"/>
<path d="M420.084 655.628H407.35V668.362H420.084V655.628Z" fill="black" fill-opacity="0.992126"/>
<path d="M432.818 655.628H420.084V668.362H432.818V655.628Z" fill="black" fill-opacity="0.992126"/>
<path d="M445.552 655.628H432.818V668.362H445.552V655.628Z" fill="black" fill-opacity="0.992126"/>
<path d="M471.021 655.628H458.286V668.362H471.021V655.628Z" fill="black" fill-opacity="0.992126"/>
<path d="M509.223 655.628H496.489V668.362H509.223V655.628Z" fill="black" fill-opacity="0.992126"/>
<path d="M547.425 655.628H534.691V668.362H547.425V655.628Z" fill="black" fill-opacity="0.992126"/>
<path d="M572.894 655.628H560.16V668.362H572.894V655.628Z" fill="black" fill-opacity="0.992126"/>
<path d="M598.362 655.628H585.628V668.362H598.362V655.628Z" fill="black" fill-opacity="0.992126"/>
</g>
<path d="M708.805 697.021H689.362H633.977V175.581C633.977 160.655 621.8 148.674 607.07 148.674H112.93C98.0033 148.674 86.0229 160.851 85.8265 175.581V697.021H30.6383H11.5876C5.89198 697.021 0.785594 701.146 -3.18215e-06 706.841C-0.982 713.715 4.51718 719.607 11.1948 719.607H32.9951C32.9951 746.121 59.7054 767.725 92.5041 767.725H174.795C173.617 771.653 174.01 775.974 176.367 779.705L242.357 890.475C253.748 909.329 268.674 925.826 286.35 938.985L361.964 995.941V1018.53C361.964 1038.76 378.462 1055.25 398.691 1055.25H503.372C523.797 1055.25 540.098 1038.76 540.098 1018.33L539.509 980.818C567.398 941.931 554.435 908.543 531.457 862.586C516.727 832.93 534.403 812.7 547.365 797.774C554.435 789.722 559.345 784.026 558.56 776.956C558.167 773.813 556.989 770.671 555.025 767.725H627.496C660.295 767.725 687.005 746.121 687.005 719.607H708.412C714.108 719.607 719.214 715.483 720 709.787C720.786 702.913 715.483 697.021 708.805 697.021ZM488.838 767.529C477.643 779.312 471.358 795.417 467.038 809.558C457.414 841.571 440.72 867.299 427.561 870.835C425.008 871.62 421.08 871.817 416.17 867.299C415.974 866.907 415.581 866.514 415.385 866.121C407.725 851.587 392.21 823.11 372.766 793.06C365.892 782.455 359.018 774.01 351.948 767.529H488.838V767.529ZM534.403 786.186C520.851 801.506 495.908 830.18 515.941 870.049C541.08 920.327 545.99 942.128 524.779 970.998C523.797 971.98 522.226 974.141 522.226 974.141L522.815 1017.94C522.815 1028.74 513.977 1037.38 503.372 1037.38H398.691C387.889 1037.38 379.247 1028.54 379.247 1017.94V1000.07C384.55 1001.05 390.835 1001.44 398.887 1001.44H414.403C419.116 1001.44 422.848 997.512 422.848 992.799C422.848 988.085 418.92 984.157 414.206 984.157H398.691C377.872 984.157 372.962 980.818 363.928 974.73C362.16 973.551 360.196 972.373 358.036 970.802L296.563 924.844C280.655 912.864 267.3 898.134 256.89 881.244L192.275 772.439C195.81 770.671 199.542 769.689 203.47 769.493C213.093 769.1 233.912 771.653 252.766 805.63C259.444 817.61 303.633 897.152 303.633 897.152C305.205 899.902 308.151 901.669 311.293 901.669C312.668 901.669 314.043 901.473 315.221 900.687C319.345 898.331 320.917 893.028 318.56 888.903L267.889 796.988L254.141 772.242C256.89 770.671 260.033 769.885 263.175 769.689C276.923 769.1 290.867 775.974 307.365 804.648C319.935 826.252 355.876 892.242 355.876 892.242C358.232 896.366 363.535 897.938 367.66 895.581C371.784 893.224 373.355 887.921 370.998 883.797L309.133 772.242C311.489 770.867 314.239 770.278 316.989 770.082C329.754 769.493 343.699 778.723 358.232 802.684C376.498 832.733 390.245 856.89 400.065 874.37C404.583 882.619 412.046 888.707 421.08 891.26C448.969 899.509 471.162 920.72 480.589 948.216C481.768 951.555 484.714 955.679 491.391 953.715C496.105 952.34 498.069 947.038 496.498 942.52C484.321 909.329 462.324 891.653 443.863 882.226C462.128 869.263 476.268 839.607 483.732 815.057C489.231 796.596 497.283 777.152 514.959 770.867C521.637 768.314 528.903 768.903 534.992 772.439C537.545 773.813 539.705 775.777 541.08 778.33C538.92 780.884 536.759 783.633 534.403 786.186ZM106.645 183.83C106.645 175.777 113.126 169.296 121.178 169.296H598.822C606.874 169.296 613.355 175.777 613.355 183.83V697.021H106.645V183.83Z" fill="black"/>
<path d="M341.756 21.2908C341.706 23.4954 341.706 97.6993 341.756 99.3528L341.806 100.756H346.065H350.324L350.374 99.3528C350.424 98.6012 350.424 97.1983 350.374 96.2463L350.324 94.4927L351.326 96.096C356.136 104.012 372.47 103.612 378.683 95.3945C381.389 91.8372 382.491 88.1796 382.641 82.2172C382.741 77.8081 382.591 76.4052 381.589 73.4991C378.984 65.733 372.871 61.5744 364.203 61.5744C359.042 61.6245 354.433 63.5786 351.777 66.8353C350.975 67.7873 350.925 66.184 350.925 44.2885C350.925 31.3116 350.825 20.4391 350.625 20.1886C350.424 19.8879 348.47 19.6875 346.065 19.6875H341.806L341.756 21.2908ZM367.009 70.4428C370.867 72.2465 373.222 77.5074 372.721 83.1191C372.069 90.1837 368.362 93.8914 361.798 93.9415C357.289 93.9916 354.232 92.1378 352.228 88.2297C348.42 80.7642 351.326 71.8958 358.241 69.6411C360.245 69.0399 364.904 69.4407 367.009 70.4428Z" fill="#2FA7DD"/>
<path d="M401.681 34.2176C401.38 35.0694 397.071 48.4972 390.908 67.687C388.102 76.355 384.595 87.1775 383.142 91.7369C381.639 96.2964 380.286 100.555 380.136 101.257L379.835 102.509H398.674C415.058 102.509 417.463 102.609 417.513 103.261C417.513 103.662 417.513 107.67 417.564 112.129V120.296L419.618 120.346C420.77 120.346 423.225 120.396 425.129 120.446L428.486 120.547V111.528V102.459L432.645 102.509C434.9 102.559 437.054 102.509 437.405 102.359C437.806 102.209 438.006 100.856 438.006 97.9498V93.7411H433.246H428.436L428.536 87.2777C428.586 81.8164 428.787 80.4134 429.739 77.9583C431.242 74.3509 432.444 73.0482 435.601 71.6954C442.766 68.5889 451.684 71.0941 454.54 76.9563C457.045 82.1671 456.344 87.4781 451.935 95.7452C449.029 101.257 446.874 104.263 437.555 116.238C433.797 120.998 429.739 126.259 428.486 127.862C427.234 129.465 424.478 133.023 422.323 135.828L418.415 140.839H445.221H472.077L472.127 139.085C472.127 138.133 472.227 136.179 472.227 134.826C472.327 132.922 472.127 132.321 471.576 132.271C471.175 132.221 463.709 132.171 454.941 132.121C446.223 132.121 438.908 131.92 438.758 131.72C438.407 131.419 439.81 129.365 442.616 126.158C443.117 125.557 446.273 121.549 449.68 117.24C459 105.365 462.607 99.8538 464.812 93.9916C466.415 89.833 466.615 88.6806 466.816 84.4719C467.517 69.4407 458.098 60.9731 441.112 61.4742C430.741 61.7247 424.127 65.3823 420.47 72.8477C418.616 76.6055 418.014 79.7621 417.764 86.9771C417.614 89.9833 417.513 92.7891 417.513 93.0897C417.463 93.9415 393.413 94.0417 393.413 93.24C393.413 92.9394 396.37 83.3195 399.977 71.7956C409.898 40.1299 411.05 36.4723 411.451 34.9692L411.902 33.6164H406.891C403.334 33.6164 401.831 33.8168 401.681 34.2176Z" fill="#2FA7DD"/>
<path d="M280.005 119.793C275.033 120.84 272.874 125.878 276.079 129.083C276.93 129.934 279.089 130.915 280.856 131.308C286.417 132.486 287.66 133.205 287.66 134.972C287.66 138.897 278.827 139.486 276.734 135.757C276.341 135.037 275.687 134.841 275.033 135.103C271.107 136.607 278.697 141.711 283.603 140.86C287.006 140.271 288.903 139.159 289.884 137C291.716 133.14 290.015 130.719 284.716 129.411C277.65 127.709 276.341 126.663 278.108 123.915C279.874 121.232 285.893 121.69 287.529 124.7C288.183 125.812 288.314 125.812 289.361 124.765C290.342 123.849 290.342 123.457 289.623 122.606C287.594 120.185 283.734 119.073 280.005 119.793Z" fill="black" fill-opacity="0.992126"/>
<path d="M234.861 130.065C234.796 139.944 234.861 140.598 236.039 140.598C237.413 140.598 237.413 140.468 237.413 135.495V132.093H239.899C242.189 132.093 242.516 132.355 245.133 136.346C247.292 139.682 248.273 140.598 249.517 140.598C251.348 140.598 251.61 141.187 247.227 134.579L245.656 132.158L247.685 130.392C250.302 128.233 250.498 124.569 248.143 121.887C246.769 120.186 246.18 120.055 240.749 119.793L234.861 119.531V130.065ZM245.787 123.588C248.797 126.597 246.572 129.476 241.273 129.476H237.544L237.478 125.878L237.413 122.279H240.946C243.628 122.279 244.806 122.606 245.787 123.588Z" fill="black" fill-opacity="0.992126"/>
<path d="M255.601 130.13V140.598H263.06C269.013 140.598 270.584 140.402 270.845 139.617C271.434 138.243 270.387 137.851 266.2 137.981C258.022 138.178 258.48 138.374 258.414 134.71L258.284 131.439H262.144C266.527 131.439 268.032 130.981 268.032 129.738C268.032 129.149 266.724 128.822 263.321 128.691L258.545 128.495V125.55V122.606L264.63 122.41C269.864 122.279 270.715 122.083 270.387 121.232C270.191 120.644 269.995 120.12 269.995 119.989C269.995 119.858 266.789 119.728 262.798 119.728L255.601 119.662V130.13Z" fill="black" fill-opacity="0.992126"/>
<path d="M292.698 120.12C292.436 120.316 292.24 120.905 292.24 121.429C292.24 122.017 293.287 122.279 295.838 122.279H299.437V131.439C299.437 140.14 299.502 140.598 300.745 140.598C302.25 140.598 302.184 140.991 302.184 130.261L302.119 122.279H305.717C308.792 122.279 309.25 122.148 309.25 120.971C309.25 119.728 308.792 119.662 301.203 119.662C296.754 119.662 292.894 119.858 292.698 120.12Z" fill="black" fill-opacity="0.992126"/>
<path d="M316.316 120.644C310.428 123.849 310.166 135.299 315.924 139.355C320.111 142.365 327.177 140.664 329.598 136.019C332.28 131.112 330.449 122.803 326.261 120.644C323.906 119.4 318.672 119.4 316.316 120.644ZM325.149 123.261C328.028 125.092 329.009 130.523 327.243 134.318C323.84 141.384 314.485 138.505 314.485 130.457C314.485 123.719 320.111 119.924 325.149 123.261Z" fill="black" fill-opacity="0.992126"/>
<path d="M346.87 130.13L346.805 140.598H351.647C356.226 140.598 360.283 139.552 361.199 138.047C362.638 135.757 361.853 131.243 359.89 130.523C359.105 130.196 359.171 129.869 360.217 128.756C362.049 126.794 361.657 123.195 359.498 121.298C358.058 120.055 356.946 119.793 352.301 119.728L346.87 119.597V130.13ZM357.666 123.588C358.385 124.307 358.974 125.158 358.974 125.55C358.974 127.317 356.292 128.822 353.086 128.822C349.945 128.822 349.815 128.756 349.749 126.99C349.749 126.008 349.618 124.569 349.553 123.719C349.422 122.41 349.618 122.279 352.89 122.279C355.507 122.279 356.684 122.606 357.666 123.588ZM357.731 132.093C358.516 132.551 358.974 133.467 358.974 134.71C358.974 137.131 357.469 137.981 353.217 137.981C350.273 137.981 349.945 137.851 349.684 136.346C349.487 135.43 349.487 133.99 349.684 133.074C349.945 131.57 350.273 131.439 353.217 131.439C354.983 131.439 357.011 131.766 357.731 132.093Z" fill="black" fill-opacity="0.992126"/>
<path d="M372.517 120.12C371.929 121.101 364.863 139.421 364.863 140.01C364.863 140.337 365.386 140.598 366.106 140.598C366.891 140.598 367.676 139.682 368.396 137.654L369.508 134.776L374.153 134.906L378.798 135.037L379.78 137.785C380.499 140.075 380.957 140.598 382.266 140.598C383.836 140.598 383.836 140.598 382.855 138.112C382.331 136.804 380.499 132.158 378.733 127.84C376.247 121.494 375.396 119.924 374.219 119.793C373.499 119.662 372.714 119.858 372.517 120.12ZM375.92 127.71C376.639 129.803 377.294 131.7 377.294 131.962C377.294 132.224 375.789 132.42 373.957 132.42C371.34 132.42 370.751 132.224 370.947 131.439C372.321 126.794 373.761 123.13 374.088 123.457C374.349 123.719 375.134 125.616 375.92 127.71Z" fill="black" fill-opacity="0.992126"/>
<path d="M387.762 130.13C387.762 140.14 387.827 140.598 389.07 140.598C390.248 140.598 390.379 140.14 390.379 136.346V132.093H392.734C394.959 132.093 397.51 133.925 397.576 135.626C397.641 137.196 401.043 140.598 402.548 140.598C404.118 140.598 404.118 140.533 401.174 136.215C398.295 131.897 398.295 131.766 399.669 131.046C401.174 130.196 402.744 127.775 402.81 126.074C402.81 124.046 401.305 121.559 399.473 120.578C398.361 120.055 395.678 119.662 392.669 119.662H387.762V130.13ZM398.426 123.064C400.127 124.307 400.324 126.728 398.884 128.167C397.903 129.149 396.66 129.476 393.977 129.476H390.379V125.878V122.279H393.846C395.744 122.279 397.837 122.672 398.426 123.064Z" fill="black" fill-opacity="0.992126"/>
<path opacity="0.15" d="M613.355 676.203H106.645V697.021H613.355V676.203Z" fill="black"/>
<path opacity="0.35" d="M633.977 676.203V697.021H613.355V676.203H633.977ZM85.8265 676.203V697.021H106.645V676.203H85.8265Z" fill="white"/>
</g>
<defs>
<clipPath id="clip0_1_816">
<rect width="720" height="1055.06" fill="white"/>
</clipPath>
<clipPath id="clip1_1_816">
<rect width="512" height="512" fill="white" transform="translate(107 177)"/>
</clipPath>
</defs>
</svg>
