<?xml version="1.0" standalone="no"?>
<!DOCTYPE svg PUBLIC "-//W3C//DTD SVG 20010904//EN"
 "http://www.w3.org/TR/2001/REC-SVG-20010904/DTD/svg10.dtd">
<svg version="1.0" xmlns="http://www.w3.org/2000/svg"
 width="842.000000pt" height="842.000000pt" viewBox="0 0 842.000000 842.000000"
 preserveAspectRatio="xMidYMid meet">
<metadata>
Created by Federico Rivero · 2022.
</metadata>
<g transform="translate(0.000000,842.000000) scale(0.100000,-0.100000)"
fill="#2fa7dd" stroke="none">
<path d="M2909 5626 c-1 -44 -1 -1525 0 -1558 l1 -28 85 0 85 0 1 28 c1 15 1
43 0 62 l-1 35 20 -32 c96 -158 422 -150 546 14 54 71 76 144 79 263 2 88 -1
116 -21 174 -52 155 -174 238 -347 238 -103 -1 -195 -40 -248 -105 -16 -19
-17 13 -17 450 0 259 -2 476 -6 481 -4 6 -43 10 -91 10 l-85 0 -1 -32z m504
-981 c77 -36 124 -141 114 -253 -13 -141 -87 -215 -218 -216 -90 -1 -151 36
-191 114 -76 149 -18 326 120 371 40 12 133 4 175 -16z"/>
<path d="M4105 5368 c-6 -17 -92 -285 -215 -668 -56 -173 -126 -389 -155 -480
-30 -91 -57 -176 -60 -190 l-6 -25 376 0 c327 0 375 -2 376 -15 0 -8 0 -88 1
-177 l0 -163 41 -1 c23 0 72 -1 110 -2 l67 -2 0 180 0 181 83 -1 c45 -1 88 0
95 3 8 3 12 30 12 88 l0 84 -95 0 -96 0 2 129 c1 109 5 137 24 186 30 72 54
98 117 125 143 62 321 12 378 -105 50 -104 36 -210 -52 -375 -58 -110 -101
-170 -287 -409 -75 -95 -156 -200 -181 -232 -25 -32 -80 -103 -123 -159 l-78
-100 535 0 536 0 1 35 c0 19 2 58 2 85 2 38 -2 50 -13 51 -8 1 -157 2 -332 3
-174 0 -320 4 -323 8 -7 6 21 47 77 111 10 12 73 92 141 178 186 237 258 347
302 464 32 83 36 106 40 190 14 300 -174 469 -513 459 -207 -5 -339 -78 -412
-227 -37 -75 -49 -138 -54 -282 -3 -60 -5 -116 -5 -122 -1 -17 -481 -19 -481
-3 0 6 59 198 131 428 198 632 221 705 229 735 l9 27 -100 0 c-71 0 -101 -4
-104 -12z"/>
<path d="M3613 3088 c-76 -16 -109 -93 -60 -142 13 -13 46 -28 73 -34 85 -18
104 -29 104 -56 0 -60 -135 -69 -167 -12 -6 11 -16 14 -26 10 -60 -23 56 -101
131 -88 52 9 81 26 96 59 28 59 2 96 -79 116 -108 26 -128 42 -101 84 27 41
119 34 144 -12 10 -17 12 -17 28 -1 15 14 15 20 4 33 -31 37 -90 54 -147 43z"/>
<path d="M2923 2931 c-1 -151 0 -161 18 -161 21 0 21 2 21 78 l0 52 38 0 c35
0 40 -4 80 -65 33 -51 48 -65 67 -65 28 0 32 -9 -35 92 l-24 37 31 27 c40 33
43 89 7 130 -21 26 -30 28 -113 32 l-90 4 0 -161z m167 99 c46 -46 12 -90 -69
-90 l-57 0 -1 55 -1 55 54 0 c41 0 59 -5 74 -20z"/>
<path d="M3240 2930 l0 -160 114 0 c91 0 115 3 119 15 9 21 -7 27 -71 25 -125
-3 -118 -6 -119 50 l-2 50 59 0 c67 0 90 7 90 26 0 9 -20 14 -72 16 l-73 3 0
45 0 45 93 3 c80 2 93 5 88 18 -3 9 -6 17 -6 19 0 2 -49 4 -110 4 l-110 1 0
-160z"/>
<path d="M3807 3083 c-4 -3 -7 -12 -7 -20 0 -9 16 -13 55 -13 l55 0 0 -140 c0
-133 1 -140 20 -140 23 0 22 -6 22 158 l-1 122 55 0 c47 0 54 2 54 20 0 19 -7
20 -123 20 -68 0 -127 -3 -130 -7z"/>
<path d="M4168 3075 c-90 -49 -94 -224 -6 -286 64 -46 172 -20 209 51 41 75
13 202 -51 235 -36 19 -116 19 -152 0z m135 -40 c44 -28 59 -111 32 -169 -52
-108 -195 -64 -195 59 0 103 86 161 163 110z"/>
<path d="M4635 2930 l-1 -160 74 0 c70 0 132 16 146 39 22 35 10 104 -20 115
-12 5 -11 10 5 27 28 30 22 85 -11 114 -22 19 -39 23 -110 24 l-83 2 0 -161z
m165 100 c11 -11 20 -24 20 -30 0 -27 -41 -50 -90 -50 -48 0 -50 1 -51 28 0
15 -2 37 -3 50 -2 20 1 22 51 22 40 0 58 -5 73 -20z m1 -130 c12 -7 19 -21 19
-40 0 -37 -23 -50 -88 -50 -45 0 -50 2 -54 25 -3 14 -3 36 0 50 4 23 9 25 54
25 27 0 58 -5 69 -10z"/>
<path d="M5027 3083 c-9 -15 -117 -295 -117 -304 0 -5 8 -9 19 -9 12 0 24 14
35 45 l17 44 71 -2 71 -2 15 -42 c11 -35 18 -43 38 -43 24 0 24 0 9 38 -8 20
-36 91 -63 157 -38 97 -51 121 -69 123 -11 2 -23 -1 -26 -5z m52 -116 c11 -32
21 -61 21 -65 0 -4 -23 -7 -51 -7 -40 0 -49 3 -46 15 21 71 43 127 48 122 4
-4 16 -33 28 -65z"/>
<path d="M5260 2930 c0 -153 1 -160 20 -160 18 0 20 7 20 65 l0 65 36 0 c34 0
73 -28 74 -54 1 -24 53 -76 76 -76 24 0 24 1 -21 67 -44 66 -44 68 -23 79 23
13 47 50 48 76 0 31 -23 69 -51 84 -17 8 -58 14 -104 14 l-75 0 0 -160z m163
108 c26 -19 29 -56 7 -78 -15 -15 -34 -20 -75 -20 l-55 0 0 55 0 55 53 0 c29
0 61 -6 70 -12z"/>
</g>
</svg>
